<?xml version="1.0" encoding="UTF-8"?>
<!DOCTYPE svg PUBLIC "-//W3C//DTD SVG 1.1//EN" "http://www.w3.org/Graphics/SVG/1.1/DTD/svg11.dtd">
<svg xmlns="http://www.w3.org/2000/svg" version="1.1" viewBox="0 0 37 37" stroke="none">
	<rect width="100%" height="100%" fill="#ffffff"/>
	<path d="M4,4h7v1h-7z M14,4h1v5h-1z M19,4h1v1h-1z M22,4h1v3h-1z M24,4h1v3h-1z M26,4h7v1h-7z M4,5h1v6h-1z M10,5h1v6h-1z M13,5h1v4h-1z M15,5h3v1h-3z M20,5h2v1h-2z M23,5h1v1h-1z M26,5h1v6h-1z M32,5h1v6h-1z M6,6h3v3h-3z M16,6h1v3h-1z M18,6h1v5h-1z M28,6h3v3h-3z M15,7h1v3h-1z M20,7h2v1h-2z M23,7h1v3h-1z M12,8h1v1h-1z M17,8h1v2h-1z M19,8h1v2h-1z M21,8h2v1h-2z M20,9h1v3h-1z M5,10h5v1h-5z M12,10h1v6h-1z M14,10h1v2h-1z M16,10h1v1h-1z M22,10h1v2h-1z M24,10h1v1h-1z M27,10h5v1h-5z M13,11h1v1h-1z M17,11h1v1h-1z M21,11h1v1h-1z M6,12h2v2h-2z M10,12h2v1h-2z M23,12h1v1h-1z M25,12h2v1h-2z M28,12h1v2h-1z M4,13h1v1h-1z M11,13h1v3h-1z M13,13h3v1h-3z M17,13h3v1h-3z M26,13h2v1h-2z M29,13h2v2h-2z M32,13h1v1h-1z M5,14h2v2h-2z M8,14h3v1h-3z M17,14h1v2h-1z M19,14h1v2h-1z M21,14h1v1h-1z M24,14h3v1h-3z M31,14h1v1h-1z M4,15h1v1h-1z M7,15h1v2h-1z M9,15h1v4h-1z M20,15h1v6h-1z M22,15h1v2h-1z M25,15h1v2h-1z M28,15h1v1h-1z M32,15h1v6h-1z M5,16h1v1h-1z M8,16h1v1h-1z M10,16h1v1h-1z M13,16h1v8h-1z M14,16h1v3h-1z M18,16h1v2h-1z M21,16h1v1h-1z M30,16h2v1h-2z M11,17h1v1h-1z M17,17h1v1h-1z M19,17h1v1h-1z M23,17h1v2h-1z M26,17h2v1h-2z M29,17h1v4h-1z M30,17h1v1h-1z M6,18h1v1h-1z M8,18h1v1h-1z M10,18h1v1h-1z M12,18h1v4h-1z M15,18h2v1h-2z M21,18h1v1h-1z M24,18h3v1h-3z M28,18h1v1h-1z M31,18h1v3h-1z M5,19h1v1h-1z M19,19h1v1h-1z M22,19h1v5h-1z M25,19h1v2h-1z M4,20h1v1h-1z M9,20h1v4h-1z M10,20h2v1h-2z M14,20h4v1h-4z M24,20h1v3h-1z M27,20h1v3h-1z M28,20h1v1h-1z M6,21h3v1h-3z M18,21h1v3h-1z M19,21h1v1h-1z M21,21h1v3h-1z M4,22h1v1h-1z M6,22h1v1h-1z M8,22h1v1h-1z M10,22h2v1h-2z M16,22h1v1h-1z M20,22h1v1h-1z M26,22h1v3h-1z M29,22h1v1h-1z M7,23h1v2h-1z M12,23h1v4h-1z M15,23h1v5h-1z M17,23h1v1h-1z M25,23h1v2h-1z M30,23h1v2h-1z M32,23h1v3h-1z M5,24h1v1h-1z M10,24h2v1h-2z M14,24h1v1h-1z M20,24h1v1h-1z M23,24h2v3h-2z M27,24h3v1h-3z M31,24h1v2h-1z M16,25h2v1h-2z M19,25h1v3h-1z M22,25h1v1h-1z M28,25h1v5h-1z M29,25h1v1h-1z M4,26h7v1h-7z M13,26h2v1h-2z M20,26h1v4h-1z M21,26h1v1h-1z M26,26h1v1h-1z M30,26h1v1h-1z M4,27h1v6h-1z M10,27h1v6h-1z M14,27h1v1h-1z M16,27h3v1h-3z M24,27h1v6h-1z M6,28h3v3h-3z M17,28h1v2h-1z M21,28h1v3h-1z M25,28h3v1h-3z M29,28h2v1h-2z M12,29h1v2h-1z M15,29h2v1h-2z M22,29h1v2h-1z M25,29h1v1h-1z M29,29h1v1h-1z M31,29h1v1h-1z M13,30h1v3h-1z M15,30h1v1h-1z M18,30h2v1h-2z M30,30h1v1h-1z M32,30h1v1h-1z M14,31h1v2h-1z M16,31h1v2h-1z M23,31h1v2h-1z M25,31h2v1h-2z M28,31h2v1h-2z M31,31h1v2h-1z M5,32h5v1h-5z M15,32h1v1h-1z M17,32h1v1h-1z M19,32h2v1h-2z M27,32h1v1h-1z" fill="#000000"/>
</svg>
