<?xml version="1.0" encoding="UTF-8"?>
<!DOCTYPE svg PUBLIC "-//W3C//DTD SVG 1.1//EN" "http://www.w3.org/Graphics/SVG/1.1/DTD/svg11.dtd">
<svg xmlns="http://www.w3.org/2000/svg" version="1.1" viewBox="0 0 41 41" stroke="none">
	<rect width="100%" height="100%" fill="#ffffff"/>
	<path d="M4,4h7v1h-7z M12,4h1v1h-1z M15,4h1v2h-1z M18,4h2v2h-2z M20,4h1v1h-1z M22,4h2v1h-2z M26,4h1v1h-1z M28,4h1v4h-1z M30,4h7v1h-7z M4,5h1v6h-1z M10,5h1v6h-1z M13,5h1v2h-1z M16,5h1v1h-1z M21,5h1v1h-1z M30,5h1v6h-1z M36,5h1v6h-1z M6,6h3v3h-3z M12,6h1v1h-1z M17,6h1v2h-1z M19,6h2v2h-2z M25,6h3v1h-3z M32,6h3v3h-3z M14,7h1v1h-1z M16,7h1v1h-1z M18,7h1v1h-1z M22,7h1v7h-1z M24,7h1v8h-1z M25,7h1v1h-1z M27,7h1v1h-1z M12,8h2v1h-2z M15,8h1v2h-1z M20,8h2v1h-2z M23,8h1v2h-1z M26,8h1v1h-1z M13,9h1v1h-1z M18,9h1v3h-1z M19,9h1v1h-1z M27,9h2v1h-2z M5,10h5v1h-5z M12,10h1v2h-1z M14,10h1v1h-1z M16,10h1v1h-1z M20,10h1v3h-1z M26,10h1v4h-1z M28,10h1v1h-1z M31,10h5v1h-5z M13,11h1v6h-1z M15,11h1v3h-1z M17,11h1v1h-1z M21,11h1v4h-1z M27,11h1v3h-1z M9,12h2v1h-2z M14,12h1v1h-1z M19,12h1v1h-1z M28,12h1v1h-1z M30,12h1v1h-1z M32,12h1v2h-1z M34,12h1v4h-1z M36,12h1v1h-1z M6,13h4v1h-4z M12,13h1v1h-1z M17,13h1v1h-1z M23,13h1v1h-1z M29,13h1v2h-1z M31,13h1v5h-1z M33,13h1v4h-1z M35,13h1v3h-1z M6,14h1v3h-1z M8,14h1v1h-1z M10,14h1v1h-1z M14,14h1v1h-1z M16,14h1v1h-1z M19,14h2v2h-2z M25,14h1v1h-1z M28,14h1v1h-1z M30,14h1v4h-1z M4,15h1v1h-1z M7,15h1v1h-1z M11,15h2v2h-2z M17,15h1v5h-1z M23,15h1v2h-1z M26,15h1v4h-1z M27,15h1v1h-1z M36,15h1v3h-1z M8,16h3v1h-3z M15,16h1v5h-1z M16,16h1v1h-1z M21,16h2v1h-2z M25,16h1v2h-1z M28,16h1v1h-1z M4,17h1v1h-1z M7,17h1v3h-1z M9,17h1v2h-1z M12,17h1v1h-1z M20,17h1v3h-1z M27,17h1v1h-1z M34,17h1v3h-1z M6,18h1v7h-1z M10,18h2v1h-2z M18,18h2v1h-2z M22,18h1v1h-1z M29,18h1v1h-1z M33,18h1v1h-1z M35,18h1v3h-1z M4,19h1v1h-1z M8,19h1v2h-1z M11,19h2v1h-2z M16,19h1v6h-1z M19,19h1v1h-1z M21,19h1v1h-1z M23,19h2v1h-2z M30,19h2v1h-2z M5,20h1v1h-1z M10,20h1v1h-1z M29,20h1v1h-1z M32,20h1v1h-1z M36,20h1v3h-1z M13,21h1v2h-1z M17,21h5v1h-5z M23,21h1v5h-1z M24,21h1v1h-1z M27,21h1v3h-1z M28,21h1v1h-1z M30,21h2v2h-2z M4,22h2v1h-2z M7,22h1v3h-1z M9,22h3v1h-3z M14,22h1v5h-1z M19,22h1v1h-1z M21,22h2v1h-2z M26,22h1v3h-1z M33,22h1v6h-1z M34,22h1v2h-1z M5,23h1v2h-1z M15,23h1v1h-1z M17,23h1v4h-1z M22,23h1v1h-1z M24,23h1v4h-1z M28,23h1v3h-1z M29,23h1v1h-1z M31,23h2v2h-2z M4,24h1v5h-1z M10,24h2v1h-2z M13,24h1v1h-1z M19,24h1v4h-1z M35,24h1v11h-1z M36,24h1v1h-1z M8,25h1v1h-1z M21,25h1v2h-1z M25,25h1v2h-1z M32,25h1v2h-1z M34,25h1v1h-1z M7,26h1v1h-1z M9,26h4v1h-4z M15,26h1v2h-1z M20,26h1v1h-1z M22,26h1v3h-1z M26,26h1v1h-1z M8,27h2v2h-2z M11,27h1v1h-1z M16,27h1v1h-1z M23,27h1v1h-1z M27,27h1v1h-1z M31,27h1v2h-1z M34,27h1v1h-1z M5,28h2v1h-2z M10,28h1v1h-1z M12,28h3v1h-3z M18,28h1v1h-1z M20,28h2v2h-2z M28,28h1v7h-1z M29,28h2v1h-2z M32,28h1v7h-1z M36,28h1v2h-1z M12,29h1v1h-1z M14,29h3v1h-3z M23,29h1v5h-1z M25,29h1v1h-1z M4,30h7v1h-7z M14,30h1v2h-1z M18,30h2v1h-2z M26,30h2v2h-2z M30,30h1v1h-1z M33,30h2v2h-2z M4,31h1v6h-1z M10,31h1v6h-1z M12,31h1v1h-1z M15,31h1v2h-1z M20,31h2v2h-2z M24,31h2v1h-2z M6,32h3v3h-3z M16,32h1v2h-1z M18,32h1v1h-1z M22,32h1v1h-1z M25,32h1v4h-1z M26,32h1v1h-1z M29,32h3v1h-3z M36,32h1v1h-1z M13,33h2v1h-2z M17,33h1v3h-1z M19,33h1v1h-1z M27,33h1v4h-1z M29,33h1v1h-1z M31,33h1v1h-1z M33,33h1v3h-1z M15,34h1v1h-1z M20,34h1v1h-1z M22,34h1v2h-1z M26,34h1v2h-1z M36,34h1v1h-1z M18,35h1v2h-1z M21,35h1v2h-1z M23,35h2v1h-2z M29,35h2v1h-2z M34,35h1v1h-1z M5,36h5v1h-5z M14,36h1v1h-1z M16,36h1v1h-1z M19,36h1v1h-1z M24,36h1v1h-1z M28,36h1v1h-1z M35,36h1v1h-1z" fill="#000000"/>
</svg>
