<?xml version="1.0" encoding="UTF-8"?>
<!DOCTYPE svg PUBLIC "-//W3C//DTD SVG 1.1//EN" "http://www.w3.org/Graphics/SVG/1.1/DTD/svg11.dtd">
<svg xmlns="http://www.w3.org/2000/svg" version="1.1" viewBox="0 0 37 37" stroke="none">
	<rect width="100%" height="100%" fill="#ffffff"/>
	<path d="M4,4h7v1h-7z M12,4h1v1h-1z M14,4h1v4h-1z M20,4h1v4h-1z M22,4h1v2h-1z M24,4h1v1h-1z M26,4h7v1h-7z M4,5h1v6h-1z M10,5h1v6h-1z M15,5h1v1h-1z M18,5h1v2h-1z M21,5h1v1h-1z M23,5h1v5h-1z M26,5h1v6h-1z M32,5h1v6h-1z M6,6h3v3h-3z M13,6h1v4h-1z M19,6h1v4h-1z M24,6h1v1h-1z M28,6h3v3h-3z M12,7h1v1h-1z M15,7h1v1h-1z M17,7h1v3h-1z M22,7h1v1h-1z M16,8h1v5h-1z M21,8h1v1h-1z M14,9h1v2h-1z M18,9h1v3h-1z M22,9h1v2h-1z M5,10h5v1h-5z M12,10h1v1h-1z M20,10h1v3h-1z M24,10h1v2h-1z M27,10h5v1h-5z M15,11h1v2h-1z M17,11h1v1h-1z M23,11h1v1h-1z M6,12h1v4h-1z M8,12h3v1h-3z M12,12h1v1h-1z M19,12h1v2h-1z M25,12h1v3h-1z M29,12h1v1h-1z M32,12h1v3h-1z M4,13h2v1h-2z M9,13h1v1h-1z M11,13h1v3h-1z M14,13h1v3h-1z M24,13h1v1h-1z M26,13h1v1h-1z M30,13h1v2h-1z M5,14h1v3h-1z M7,14h2v1h-2z M10,14h1v1h-1z M12,14h2v2h-2z M15,14h1v1h-1z M18,14h1v1h-1z M20,14h2v3h-2z M27,14h1v1h-1z M29,14h1v1h-1z M31,14h1v2h-1z M4,15h1v1h-1z M16,15h1v1h-1z M19,15h1v1h-1z M23,15h2v1h-2z M26,15h1v3h-1z M9,16h1v4h-1z M10,16h1v1h-1z M15,16h1v1h-1z M17,16h1v3h-1z M24,16h1v2h-1z M4,17h1v1h-1z M6,17h2v1h-2z M12,17h3v1h-3z M16,17h1v1h-1z M18,17h1v5h-1z M20,17h1v1h-1z M25,17h1v1h-1z M27,17h1v1h-1z M31,17h2v3h-2z M5,18h1v2h-1z M10,18h1v1h-1z M12,18h1v2h-1z M22,18h1v2h-1z M30,18h1v1h-1z M8,19h1v1h-1z M14,19h2v1h-2z M19,19h1v1h-1z M23,19h1v1h-1z M27,19h2v1h-2z M6,20h1v1h-1z M10,20h1v1h-1z M15,20h3v1h-3z M20,20h1v2h-1z M24,20h1v9h-1z M25,20h3v1h-3z M29,20h1v1h-1z M31,20h1v3h-1z M11,21h1v1h-1z M14,21h2v1h-2z M21,21h1v1h-1z M26,21h1v1h-1z M32,21h1v8h-1z M4,22h1v1h-1z M7,22h1v3h-1z M9,22h2v1h-2z M13,22h1v2h-1z M16,22h2v1h-2z M19,22h1v1h-1z M25,22h1v1h-1z M28,22h3v1h-3z M5,23h2v1h-2z M12,23h1v3h-1z M14,23h2v1h-2z M17,23h2v1h-2z M20,23h1v1h-1z M23,23h1v1h-1z M26,23h1v2h-1z M29,23h1v1h-1z M4,24h1v1h-1z M6,24h1v1h-1z M8,24h1v1h-1z M10,24h2v1h-2z M16,24h1v2h-1z M19,24h1v1h-1z M21,24h2v1h-2z M25,24h1v1h-1z M27,24h2v1h-2z M31,24h1v2h-1z M13,25h2v1h-2z M17,25h1v4h-1z M18,25h1v1h-1z M28,25h1v6h-1z M4,26h7v1h-7z M14,26h2v1h-2z M19,26h1v2h-1z M21,26h1v1h-1z M23,26h1v1h-1z M26,26h1v1h-1z M30,26h1v1h-1z M4,27h1v6h-1z M10,27h1v6h-1z M12,27h1v2h-1z M15,27h2v1h-2z M18,27h1v1h-1z M20,27h1v2h-1z M31,27h1v2h-1z M6,28h3v3h-3z M25,28h3v1h-3z M29,28h1v1h-1z M14,29h1v3h-1z M16,29h1v1h-1z M21,29h1v2h-1z M23,29h1v2h-1z M30,29h1v1h-1z M12,30h2v1h-2z M18,30h3v1h-3z M29,30h1v1h-1z M32,30h1v1h-1z M13,31h1v1h-1z M15,31h2v1h-2z M24,31h1v2h-1z M27,31h1v1h-1z M31,31h1v2h-1z M5,32h5v1h-5z M18,32h1v1h-1z M20,32h1v1h-1z M23,32h1v1h-1z M26,32h1v1h-1z M28,32h2v1h-2z M32,32h1v1h-1z" fill="#000000"/>
</svg>
