<?xml version="1.0" encoding="UTF-8"?>
<!DOCTYPE svg PUBLIC "-//W3C//DTD SVG 1.1//EN" "http://www.w3.org/Graphics/SVG/1.1/DTD/svg11.dtd">
<svg xmlns="http://www.w3.org/2000/svg" version="1.1" viewBox="0 0 73 73" stroke="none">
	<rect width="100%" height="100%" fill="#ffffff"/>
	<path d="M4,4h7v1h-7z M17,4h2v1h-2z M20,4h1v1h-1z M23,4h2v1h-2z M26,4h1v2h-1z M28,4h1v1h-1z M30,4h2v1h-2z M37,4h1v1h-1z M44,4h1v1h-1z M48,4h1v3h-1z M50,4h3v1h-3z M54,4h1v1h-1z M56,4h1v1h-1z M59,4h1v1h-1z M62,4h7v1h-7z M4,5h1v6h-1z M10,5h1v6h-1z M12,5h1v6h-1z M15,5h1v2h-1z M19,5h1v4h-1z M22,5h1v1h-1z M25,5h1v4h-1z M27,5h1v1h-1z M33,5h3v1h-3z M38,5h2v1h-2z M43,5h1v1h-1z M46,5h2v1h-2z M51,5h1v4h-1z M53,5h1v1h-1z M55,5h1v5h-1z M60,5h1v2h-1z M62,5h1v6h-1z M68,5h1v6h-1z M6,6h3v3h-3z M13,6h1v3h-1z M16,6h1v2h-1z M18,6h1v1h-1z M24,6h1v5h-1z M31,6h2v2h-2z M33,6h1v1h-1z M35,6h1v3h-1z M40,6h3v1h-3z M44,6h2v1h-2z M47,6h1v1h-1z M49,6h1v1h-1z M57,6h2v2h-2z M64,6h3v3h-3z M14,7h1v1h-1z M20,7h2v2h-2z M22,7h1v1h-1z M26,7h1v1h-1z M28,7h1v1h-1z M34,7h1v7h-1z M36,7h2v2h-2z M42,7h1v1h-1z M46,7h1v1h-1z M50,7h1v4h-1z M54,7h1v4h-1z M59,7h1v1h-1z M17,8h2v1h-2z M23,8h1v1h-1z M31,8h1v1h-1z M33,8h1v2h-1z M38,8h1v5h-1z M41,8h1v2h-1z M43,8h3v1h-3z M47,8h1v2h-1z M52,8h1v1h-1z M56,8h2v1h-2z M60,8h1v1h-1z M14,9h3v1h-3z M22,9h1v3h-1z M26,9h1v4h-1z M28,9h1v2h-1z M30,9h1v3h-1z M40,9h1v3h-1z M42,9h1v10h-1z M46,9h1v2h-1z M48,9h1v2h-1z M58,9h1v2h-1z M5,10h5v1h-5z M14,10h1v1h-1z M16,10h1v3h-1z M18,10h1v2h-1z M20,10h1v2h-1z M32,10h1v3h-1z M36,10h1v1h-1z M44,10h1v1h-1z M52,10h1v3h-1z M56,10h1v4h-1z M60,10h1v2h-1z M63,10h5v1h-5z M13,11h1v2h-1z M23,11h1v1h-1z M25,11h1v5h-1z M29,11h1v3h-1z M31,11h1v1h-1z M43,11h1v1h-1z M45,11h1v1h-1z M49,11h1v4h-1z M51,11h1v2h-1z M53,11h1v12h-1z M55,11h1v1h-1z M59,11h1v1h-1z M6,12h1v1h-1z M9,12h1v5h-1z M10,12h3v1h-3z M14,12h1v1h-1z M27,12h1v2h-1z M33,12h1v1h-1z M35,12h3v2h-3z M41,12h1v1h-1z M46,12h1v3h-1z M50,12h1v1h-1z M58,12h1v1h-1z M61,12h1v1h-1z M63,12h5v1h-5z M4,13h1v1h-1z M7,13h1v1h-1z M15,13h1v1h-1z M18,13h1v5h-1z M21,13h1v2h-1z M28,13h1v2h-1z M30,13h1v4h-1z M39,13h1v1h-1z M43,13h3v1h-3z M48,13h1v1h-1z M55,13h1v2h-1z M59,13h1v1h-1z M64,13h1v2h-1z M66,13h3v1h-3z M5,14h1v7h-1z M8,14h1v3h-1z M10,14h1v1h-1z M12,14h1v1h-1z M16,14h2v1h-2z M20,14h1v1h-1z M23,14h1v4h-1z M31,14h2v2h-2z M36,14h3v1h-3z M40,14h2v2h-2z M52,14h1v3h-1z M54,14h1v2h-1z M58,14h1v3h-1z M66,14h1v1h-1z M68,14h1v1h-1z M7,15h1v1h-1z M13,15h2v1h-2z M17,15h1v3h-1z M27,15h1v1h-1z M33,15h1v3h-1z M36,15h1v1h-1z M38,15h1v2h-1z M43,15h2v2h-2z M45,15h1v1h-1z M47,15h1v4h-1z M51,15h1v2h-1z M59,15h1v3h-1z M61,15h1v2h-1z M65,15h1v1h-1z M67,15h1v2h-1z M6,16h1v1h-1z M10,16h4v1h-4z M16,16h1v3h-1z M24,16h1v1h-1z M28,16h2v1h-2z M35,16h1v4h-1z M40,16h1v2h-1z M46,16h1v1h-1z M48,16h2v1h-2z M56,16h1v3h-1z M64,16h1v1h-1z M68,16h1v1h-1z M4,17h1v1h-1z M11,17h1v1h-1z M15,17h1v2h-1z M19,17h2v1h-2z M25,17h2v3h-2z M27,17h2v1h-2z M31,17h2v1h-2z M34,17h1v4h-1z M39,17h1v1h-1z M44,17h1v2h-1z M49,17h1v2h-1z M54,17h1v2h-1z M57,17h1v3h-1z M63,17h1v1h-1z M6,18h5v1h-5z M13,18h2v1h-2z M20,18h1v1h-1z M22,18h1v1h-1z M31,18h1v1h-1z M36,18h1v8h-1z M38,18h1v1h-1z M46,18h1v1h-1z M48,18h1v4h-1z M50,18h1v1h-1z M55,18h1v1h-1z M58,18h1v2h-1z M60,18h2v2h-2z M65,18h1v3h-1z M66,18h1v1h-1z M68,18h1v3h-1z M4,19h1v1h-1z M6,19h1v1h-1z M11,19h1v1h-1z M14,19h1v2h-1z M18,19h2v1h-2z M23,19h2v2h-2z M41,19h1v3h-1z M43,19h1v6h-1z M51,19h2v2h-2z M59,19h1v3h-1z M62,19h1v1h-1z M8,20h1v1h-1z M10,20h1v1h-1z M12,20h1v3h-1z M15,20h3v1h-3z M20,20h2v1h-2z M25,20h1v2h-1z M28,20h1v1h-1z M32,20h1v3h-1z M38,20h1v1h-1z M44,20h1v2h-1z M50,20h1v1h-1z M56,20h1v1h-1z M64,20h1v1h-1z M9,21h1v1h-1z M15,21h1v1h-1z M17,21h2v2h-2z M21,21h2v1h-2z M26,21h1v3h-1z M30,21h1v2h-1z M33,21h1v1h-1z M51,21h1v2h-1z M55,21h1v1h-1z M57,21h1v2h-1z M63,21h1v1h-1z M4,22h1v1h-1z M6,22h3v1h-3z M10,22h1v1h-1z M13,22h2v1h-2z M16,22h1v2h-1z M20,22h1v1h-1z M22,22h2v4h-2z M24,22h1v2h-1z M27,22h1v2h-1z M34,22h2v1h-2z M37,22h1v1h-1z M40,22h1v3h-1z M42,22h1v1h-1z M46,22h1v3h-1z M50,22h1v1h-1z M52,22h1v1h-1z M54,22h1v1h-1z M58,22h1v1h-1z M61,22h1v1h-1z M65,22h3v1h-3z M5,23h1v4h-1z M7,23h2v1h-2z M15,23h1v1h-1z M18,23h2v1h-2z M21,23h1v1h-1z M25,23h1v3h-1z M28,23h2v1h-2z M31,23h1v3h-1z M33,23h1v1h-1z M35,23h1v2h-1z M38,23h1v4h-1z M41,23h1v2h-1z M44,23h2v1h-2z M47,23h2v1h-2z M56,23h1v2h-1z M62,23h4v1h-4z M9,24h1v6h-1z M10,24h2v1h-2z M13,24h2v1h-2z M19,24h2v2h-2z M29,24h1v3h-1z M42,24h1v2h-1z M48,24h2v1h-2z M51,24h2v1h-2z M58,24h4v1h-4z M63,24h2v2h-2z M65,24h1v1h-1z M67,24h2v1h-2z M4,25h1v9h-1z M6,25h1v1h-1z M15,25h4v1h-4z M21,25h1v4h-1z M24,25h1v1h-1z M27,25h1v2h-1z M30,25h1v2h-1z M45,25h1v4h-1z M49,25h1v2h-1z M55,25h1v4h-1z M57,25h1v2h-1z M59,25h1v1h-1z M61,25h1v2h-1z M10,26h1v1h-1z M12,26h1v2h-1z M15,26h2v1h-2z M18,26h1v3h-1z M20,26h1v1h-1z M23,26h1v2h-1z M28,26h1v2h-1z M32,26h1v3h-1z M39,26h1v1h-1z M48,26h1v1h-1z M50,26h4v1h-4z M62,26h2v1h-2z M65,26h1v7h-1z M6,27h1v1h-1z M11,27h1v2h-1z M14,27h1v2h-1z M16,27h1v3h-1z M17,27h1v1h-1z M25,27h2v2h-2z M31,27h1v1h-1z M33,27h1v1h-1z M35,27h2v1h-2z M40,27h4v1h-4z M47,27h1v4h-1z M50,27h2v1h-2z M53,27h2v2h-2z M56,27h1v3h-1z M58,27h3v1h-3z M64,27h1v2h-1z M68,27h1v1h-1z M8,28h1v2h-1z M10,28h1v1h-1z M13,28h1v1h-1z M15,28h1v1h-1z M19,28h1v2h-1z M36,28h1v3h-1z M37,28h1v1h-1z M39,28h2v1h-2z M44,28h1v1h-1z M48,28h2v1h-2z M52,28h1v1h-1z M57,28h1v8h-1z M60,28h1v1h-1z M62,28h1v1h-1z M5,29h2v2h-2z M17,29h1v2h-1z M22,29h1v1h-1z M24,29h1v1h-1z M26,29h3v1h-3z M33,29h3v1h-3z M38,29h2v1h-2z M41,29h1v2h-1z M43,29h1v1h-1z M46,29h1v1h-1z M49,29h1v2h-1z M51,29h1v2h-1z M53,29h1v2h-1z M59,29h1v4h-1z M63,29h1v3h-1z M68,29h1v2h-1z M7,30h1v1h-1z M10,30h3v1h-3z M18,30h1v1h-1z M20,30h1v1h-1z M25,30h1v3h-1z M27,30h5v2h-5z M34,30h1v2h-1z M37,30h1v2h-1z M40,30h1v1h-1z M42,30h1v2h-1z M48,30h1v1h-1z M50,30h1v2h-1z M52,30h1v1h-1z M55,30h1v2h-1z M58,30h1v1h-1z M62,30h1v1h-1z M66,30h1v1h-1z M5,31h1v2h-1z M14,31h1v2h-1z M16,31h1v2h-1z M22,31h1v4h-1z M24,31h1v3h-1z M33,31h1v3h-1z M43,31h3v1h-3z M60,31h2v1h-2z M67,31h1v1h-1z M8,32h1v11h-1z M10,32h1v1h-1z M15,32h1v2h-1z M17,32h1v1h-1z M21,32h1v2h-1z M26,32h1v3h-1z M28,32h1v1h-1z M30,32h1v2h-1z M32,32h1v5h-1z M35,32h1v3h-1z M36,32h1v1h-1z M38,32h1v7h-1z M40,32h1v1h-1z M45,32h2v1h-2z M54,32h1v1h-1z M56,32h1v2h-1z M58,32h1v1h-1z M60,32h1v1h-1z M62,32h1v1h-1z M64,32h1v7h-1z M9,33h1v2h-1z M13,33h1v3h-1z M18,33h2v1h-2z M23,33h1v1h-1z M37,33h1v2h-1z M41,33h3v1h-3z M46,33h1v1h-1z M48,33h2v1h-2z M52,33h2v1h-2z M61,33h1v2h-1z M67,33h2v1h-2z M5,34h1v1h-1z M7,34h1v2h-1z M10,34h3v1h-3z M18,34h1v1h-1z M27,34h3v1h-3z M31,34h1v2h-1z M34,34h1v6h-1z M36,34h1v1h-1z M39,34h1v1h-1z M44,34h2v1h-2z M49,34h2v1h-2z M53,34h1v8h-1z M54,34h2v2h-2z M58,34h1v3h-1z M60,34h1v10h-1z M62,34h2v1h-2z M68,34h1v1h-1z M6,35h1v2h-1z M12,35h1v5h-1z M15,35h2v1h-2z M20,35h1v1h-1z M23,35h2v3h-2z M25,35h1v1h-1z M28,35h1v4h-1z M33,35h1v2h-1z M40,35h4v1h-4z M46,35h1v3h-1z M48,35h1v6h-1z M50,35h2v1h-2z M59,35h1v6h-1z M10,36h1v1h-1z M15,36h1v1h-1z M17,36h3v1h-3z M21,36h2v1h-2z M26,36h2v1h-2z M29,36h2v1h-2z M36,36h1v1h-1z M42,36h1v3h-1z M44,36h1v1h-1z M47,36h1v1h-1z M52,36h1v1h-1z M55,36h1v4h-1z M56,36h1v1h-1z M62,36h1v1h-1z M67,36h2v1h-2z M7,37h1v1h-1z M22,37h1v2h-1z M27,37h1v3h-1z M31,37h1v2h-1z M41,37h1v2h-1z M45,37h1v1h-1z M49,37h1v1h-1z M51,37h1v2h-1z M57,37h1v3h-1z M65,37h1v1h-1z M68,37h1v2h-1z M5,38h1v1h-1z M9,38h1v4h-1z M10,38h2v1h-2z M13,38h2v2h-2z M16,38h1v2h-1z M18,38h1v1h-1z M20,38h1v3h-1z M21,38h1v1h-1z M25,38h2v2h-2z M30,38h1v1h-1z M35,38h3v1h-3z M40,38h1v1h-1z M43,38h1v2h-1z M52,38h1v3h-1z M54,38h1v1h-1z M56,38h1v1h-1z M58,38h1v2h-1z M61,38h3v1h-3z M66,38h1v1h-1z M4,39h1v2h-1z M6,39h2v1h-2z M19,39h1v2h-1z M23,39h1v3h-1z M24,39h1v1h-1z M29,39h1v2h-1z M37,39h1v2h-1z M39,39h1v1h-1z M47,39h1v1h-1z M50,39h1v1h-1z M67,39h1v3h-1z M10,40h1v1h-1z M14,40h2v2h-2z M17,40h2v1h-2z M22,40h1v1h-1z M25,40h1v2h-1z M28,40h1v1h-1z M35,40h1v2h-1z M38,40h1v1h-1z M42,40h1v2h-1z M44,40h2v1h-2z M54,40h1v1h-1z M56,40h1v2h-1z M61,40h3v2h-3z M64,40h2v1h-2z M68,40h1v3h-1z M13,41h1v1h-1z M18,41h1v5h-1z M24,41h1v2h-1z M26,41h1v1h-1z M41,41h1v1h-1z M45,41h1v1h-1z M49,41h1v1h-1z M51,41h1v4h-1z M57,41h1v3h-1z M4,42h3v1h-3z M10,42h2v1h-2z M17,42h1v3h-1z M19,42h1v2h-1z M21,42h2v1h-2z M28,42h7v1h-7z M36,42h1v2h-1z M38,42h2v3h-2z M48,42h1v3h-1z M52,42h1v3h-1z M55,42h1v1h-1z M59,42h1v1h-1z M62,42h2v1h-2z M66,42h1v1h-1z M5,43h1v1h-1z M7,43h1v1h-1z M14,43h1v6h-1z M20,43h1v1h-1z M22,43h2v1h-2z M25,43h1v5h-1z M26,43h1v1h-1z M29,43h2v2h-2z M32,43h4v1h-4z M42,43h1v1h-1z M46,43h1v3h-1z M47,43h1v1h-1z M49,43h1v1h-1z M56,43h1v4h-1z M4,44h1v2h-1z M6,44h1v2h-1z M9,44h4v1h-4z M16,44h1v1h-1z M21,44h2v1h-2z M24,44h1v3h-1z M27,44h1v3h-1z M31,44h1v1h-1z M33,44h2v1h-2z M37,44h1v1h-1z M50,44h1v1h-1z M54,44h2v1h-2z M58,44h2v1h-2z M63,44h1v5h-1z M64,44h1v2h-1z M66,44h3v2h-3z M9,45h1v3h-1z M11,45h1v1h-1z M19,45h2v3h-2z M21,45h1v1h-1z M26,45h1v5h-1z M28,45h1v5h-1z M34,45h3v1h-3z M41,45h1v2h-1z M43,45h3v1h-3z M53,45h1v2h-1z M55,45h1v1h-1z M62,45h1v3h-1z M5,46h1v5h-1z M8,46h1v1h-1z M10,46h1v1h-1z M12,46h1v1h-1z M16,46h2v1h-2z M23,46h1v2h-1z M30,46h2v2h-2z M33,46h1v2h-1z M36,46h2v1h-2z M39,46h2v2h-2z M45,46h1v1h-1z M57,46h2v1h-2z M60,46h1v2h-1z M65,46h1v4h-1z M68,46h1v1h-1z M15,47h1v5h-1z M21,47h1v2h-1z M34,47h2v1h-2z M37,47h1v1h-1z M44,47h1v1h-1z M47,47h2v1h-2z M51,47h2v1h-2z M55,47h1v1h-1z M57,47h1v1h-1z M61,47h1v7h-1z M64,47h1v2h-1z M67,47h1v3h-1z M10,48h1v1h-1z M12,48h1v2h-1z M16,48h2v2h-2z M22,48h1v6h-1z M24,48h1v1h-1z M27,48h1v1h-1z M32,48h1v2h-1z M35,48h1v2h-1z M38,48h1v1h-1z M41,48h1v2h-1z M45,48h1v1h-1z M48,48h3v1h-3z M52,48h2v5h-2z M56,48h1v2h-1z M59,48h1v3h-1z M66,48h1v1h-1z M6,49h1v2h-1z M8,49h1v3h-1z M9,49h1v1h-1z M11,49h1v1h-1z M13,49h1v2h-1z M18,49h2v1h-2z M30,49h1v1h-1z M33,49h1v1h-1z M36,49h1v1h-1z M39,49h2v1h-2z M43,49h2v2h-2z M46,49h2v1h-2z M49,49h1v2h-1z M51,49h1v3h-1z M57,49h1v1h-1z M60,49h1v7h-1z M62,49h1v3h-1z M68,49h1v2h-1z M4,50h1v1h-1z M10,50h1v1h-1z M14,50h1v2h-1z M16,50h1v1h-1z M18,50h1v1h-1z M21,50h1v1h-1z M24,50h1v6h-1z M25,50h1v1h-1z M27,50h1v2h-1z M31,50h1v1h-1z M39,50h1v1h-1z M54,50h2v2h-2z M66,50h1v1h-1z M7,51h1v2h-1z M9,51h1v1h-1z M11,51h2v1h-2z M20,51h1v1h-1z M23,51h1v1h-1z M28,51h1v2h-1z M35,51h2v1h-2z M41,51h1v1h-1z M46,51h3v1h-3z M50,51h1v2h-1z M56,51h2v2h-2z M63,51h3v1h-3z M67,51h1v2h-1z M4,52h1v3h-1z M6,52h1v1h-1z M10,52h1v1h-1z M12,52h1v1h-1z M18,52h1v1h-1z M25,52h1v1h-1z M30,52h1v1h-1z M34,52h1v1h-1z M38,52h1v5h-1z M44,52h2v2h-2z M48,52h2v1h-2z M54,52h1v1h-1z M58,52h1v1h-1z M63,52h1v1h-1z M66,52h1v1h-1z M8,53h2v1h-2z M13,53h3v1h-3z M19,53h3v1h-3z M23,53h1v1h-1z M29,53h1v2h-1z M31,53h3v1h-3z M37,53h1v2h-1z M43,53h1v3h-1z M49,53h1v1h-1z M51,53h1v3h-1z M53,53h1v1h-1z M56,53h1v1h-1z M59,53h1v1h-1z M65,53h1v1h-1z M68,53h1v2h-1z M6,54h1v2h-1z M9,54h2v1h-2z M18,54h1v4h-1z M20,54h2v2h-2z M25,54h2v4h-2z M27,54h1v1h-1z M30,54h1v3h-1z M31,54h1v1h-1z M33,54h1v2h-1z M35,54h2v1h-2z M39,54h1v3h-1z M42,54h1v1h-1z M45,54h2v1h-2z M48,54h1v3h-1z M62,54h2v1h-2z M66,54h1v1h-1z M5,55h1v1h-1z M7,55h2v1h-2z M11,55h3v1h-3z M15,55h1v3h-1z M22,55h2v2h-2z M32,55h1v1h-1z M36,55h1v1h-1z M41,55h1v1h-1z M44,55h1v1h-1z M46,55h1v4h-1z M47,55h1v1h-1z M49,55h1v1h-1z M55,55h3v2h-3z M58,55h1v1h-1z M64,55h2v1h-2z M67,55h1v1h-1z M4,56h1v1h-1z M9,56h3v1h-3z M13,56h2v1h-2z M16,56h1v1h-1z M29,56h1v2h-1z M31,56h1v3h-1z M50,56h1v1h-1z M52,56h1v1h-1z M59,56h1v1h-1z M61,56h1v1h-1z M65,56h1v1h-1z M68,56h1v1h-1z M6,57h4v1h-4z M11,57h1v1h-1z M14,57h1v1h-1z M17,57h1v2h-1z M20,57h2v2h-2z M24,57h1v3h-1z M27,57h1v1h-1z M32,57h1v2h-1z M34,57h1v1h-1z M36,57h1v4h-1z M41,57h1v5h-1z M49,57h1v1h-1z M51,57h1v1h-1z M53,57h1v2h-1z M55,57h1v1h-1z M57,57h2v3h-2z M60,57h1v1h-1z M63,57h1v1h-1z M67,57h1v1h-1z M6,58h2v1h-2z M9,58h2v1h-2z M12,58h2v1h-2z M16,58h1v1h-1z M23,58h1v3h-1z M28,58h1v2h-1z M30,58h1v5h-1z M33,58h1v1h-1z M35,58h1v3h-1z M40,58h1v2h-1z M48,58h1v3h-1z M52,58h1v1h-1z M54,58h1v1h-1z M56,58h1v1h-1z M59,58h1v4h-1z M62,58h1v1h-1z M64,58h1v1h-1z M68,58h1v2h-1z M4,59h1v1h-1z M7,59h1v1h-1z M11,59h2v1h-2z M14,59h1v2h-1z M20,59h1v1h-1z M25,59h1v1h-1z M34,59h1v6h-1z M38,59h1v6h-1z M39,59h1v2h-1z M42,59h1v3h-1z M44,59h1v1h-1z M47,59h1v1h-1z M49,59h1v2h-1z M55,59h1v1h-1z M60,59h1v9h-1z M63,59h1v2h-1z M5,60h2v1h-2z M8,60h1v1h-1z M10,60h1v1h-1z M13,60h1v1h-1z M22,60h1v6h-1z M26,60h2v1h-2z M29,60h1v1h-1z M32,60h1v1h-1z M37,60h1v1h-1z M45,60h1v1h-1z M50,60h1v1h-1z M52,60h1v1h-1z M54,60h1v1h-1z M56,60h2v1h-2z M61,60h2v1h-2z M64,60h1v7h-1z M67,60h1v2h-1z M12,61h1v3h-1z M15,61h3v1h-3z M20,61h2v3h-2z M43,61h1v1h-1z M46,61h1v3h-1z M51,61h1v2h-1z M55,61h1v1h-1z M65,61h1v1h-1z M4,62h7v1h-7z M13,62h1v3h-1z M14,62h1v1h-1z M17,62h1v1h-1z M19,62h1v1h-1z M23,62h1v5h-1z M25,62h3v1h-3z M36,62h1v1h-1z M39,62h1v2h-1z M49,62h1v7h-1z M50,62h1v2h-1z M54,62h1v1h-1z M56,62h1v1h-1z M62,62h1v1h-1z M66,62h1v1h-1z M68,62h1v2h-1z M4,63h1v6h-1z M10,63h1v6h-1z M15,63h1v1h-1z M18,63h1v1h-1z M27,63h1v1h-1z M31,63h2v1h-2z M40,63h1v2h-1z M47,63h2v2h-2z M52,63h1v2h-1z M57,63h3v1h-3z M6,64h3v3h-3z M17,64h1v3h-1z M25,64h2v1h-2z M28,64h3v1h-3z M35,64h3v1h-3z M43,64h1v2h-1z M45,64h1v5h-1z M56,64h2v1h-2z M61,64h3v1h-3z M67,64h1v1h-1z M14,65h1v3h-1z M18,65h1v1h-1z M20,65h1v2h-1z M24,65h1v2h-1z M27,65h1v2h-1z M31,65h1v2h-1z M37,65h1v1h-1z M44,65h1v1h-1z M48,65h1v1h-1z M50,65h1v2h-1z M53,65h1v4h-1z M55,65h1v1h-1z M62,65h1v1h-1z M65,65h1v1h-1z M12,66h1v1h-1z M15,66h1v2h-1z M21,66h1v1h-1z M25,66h1v3h-1z M28,66h1v3h-1z M34,66h2v1h-2z M39,66h1v1h-1z M54,66h1v2h-1z M56,66h1v3h-1z M61,66h1v3h-1z M66,66h3v1h-3z M13,67h1v2h-1z M16,67h1v2h-1z M18,67h2v1h-2z M26,67h1v1h-1z M29,67h1v1h-1z M38,67h1v2h-1z M42,67h3v1h-3z M46,67h1v2h-1z M51,67h2v2h-2z M57,67h2v1h-2z M63,67h1v1h-1z M5,68h5v1h-5z M17,68h1v1h-1z M19,68h2v1h-2z M22,68h2v1h-2z M30,68h2v1h-2z M34,68h1v1h-1z M36,68h1v1h-1z M39,68h1v1h-1z M42,68h1v1h-1z M47,68h2v1h-2z M50,68h1v1h-1z M57,68h1v1h-1z M64,68h1v1h-1z M68,68h1v1h-1z" fill="#000000"/>
</svg>
