<?xml version="1.0" encoding="UTF-8"?>
<!DOCTYPE svg PUBLIC "-//W3C//DTD SVG 1.1//EN" "http://www.w3.org/Graphics/SVG/1.1/DTD/svg11.dtd">
<svg xmlns="http://www.w3.org/2000/svg" version="1.1" viewBox="0 0 53 53" stroke="none">
	<rect width="100%" height="100%" fill="#ffffff"/>
	<path d="M4,4h7v1h-7z M12,4h1v3h-1z M14,4h1v1h-1z M16,4h3v2h-3z M19,4h1v1h-1z M21,4h1v2h-1z M25,4h5v1h-5z M33,4h4v1h-4z M40,4h1v1h-1z M42,4h7v1h-7z M4,5h1v6h-1z M10,5h1v6h-1z M22,5h2v1h-2z M25,5h1v1h-1z M29,5h1v1h-1z M31,5h1v3h-1z M35,5h2v1h-2z M39,5h1v4h-1z M42,5h1v6h-1z M48,5h1v6h-1z M6,6h3v3h-3z M13,6h2v2h-2z M17,6h2v1h-2z M23,6h2v2h-2z M27,6h1v3h-1z M32,6h1v1h-1z M34,6h2v1h-2z M37,6h1v1h-1z M44,6h3v3h-3z M15,7h1v2h-1z M17,7h1v1h-1z M29,7h1v1h-1z M33,7h1v1h-1z M40,7h1v2h-1z M13,8h1v1h-1z M16,8h1v1h-1z M18,8h3v1h-3z M22,8h1v5h-1z M24,8h1v6h-1z M25,8h2v1h-2z M28,8h1v5h-1z M32,8h1v1h-1z M34,8h2v1h-2z M38,8h1v1h-1z M12,9h1v4h-1z M17,9h2v1h-2z M20,9h2v1h-2z M29,9h1v1h-1z M31,9h1v1h-1z M33,9h1v1h-1z M37,9h1v1h-1z M5,10h5v1h-5z M14,10h1v1h-1z M16,10h1v1h-1z M18,10h1v1h-1z M20,10h1v1h-1z M26,10h1v1h-1z M30,10h1v6h-1z M32,10h1v4h-1z M34,10h1v8h-1z M36,10h1v2h-1z M38,10h1v3h-1z M40,10h1v2h-1z M43,10h5v1h-5z M15,11h1v3h-1z M19,11h1v1h-1z M21,11h1v1h-1z M23,11h1v1h-1z M31,11h1v1h-1z M37,11h1v2h-1z M6,12h3v1h-3z M10,12h1v1h-1z M17,12h2v1h-2z M25,12h3v1h-3z M33,12h1v2h-1z M35,12h1v1h-1z M41,12h3v1h-3z M46,12h3v2h-3z M5,13h1v1h-1z M7,13h3v2h-3z M11,13h1v1h-1z M13,13h2v1h-2z M19,13h3v1h-3z M29,13h1v2h-1z M31,13h1v1h-1z M39,13h3v1h-3z M43,13h1v1h-1z M4,14h1v4h-1z M6,14h1v2h-1z M10,14h1v1h-1z M12,14h1v2h-1z M20,14h4v1h-4z M25,14h3v1h-3z M37,14h1v1h-1z M42,14h1v1h-1z M44,14h3v2h-3z M8,15h1v1h-1z M14,15h1v1h-1z M16,15h1v2h-1z M20,15h2v1h-2z M23,15h1v2h-1z M28,15h1v1h-1z M32,15h2v1h-2z M39,15h1v2h-1z M43,15h1v1h-1z M10,16h2v1h-2z M17,16h1v6h-1z M19,16h1v2h-1z M21,16h1v1h-1z M27,16h1v2h-1z M29,16h1v1h-1z M31,16h1v2h-1z M33,16h1v4h-1z M35,16h1v4h-1z M41,16h1v4h-1z M47,16h2v2h-2z M7,17h2v1h-2z M12,17h1v2h-1z M14,17h1v1h-1z M22,17h1v2h-1z M24,17h1v1h-1z M26,17h1v6h-1z M30,17h1v1h-1z M32,17h1v3h-1z M40,17h1v12h-1z M44,17h2v3h-2z M5,18h2v2h-2z M10,18h1v1h-1z M15,18h2v1h-2z M20,18h2v1h-2z M28,18h1v3h-1z M29,18h1v1h-1z M36,18h2v2h-2z M39,18h1v1h-1z M46,18h1v3h-1z M4,19h1v2h-1z M8,19h1v3h-1z M9,19h1v1h-1z M11,19h1v1h-1z M13,19h1v1h-1z M16,19h1v2h-1z M24,19h2v3h-2z M27,19h1v1h-1z M31,19h1v1h-1z M42,19h1v2h-1z M47,19h2v1h-2z M10,20h1v1h-1z M12,20h1v12h-1z M14,20h1v1h-1z M19,20h2v2h-2z M29,20h2v1h-2z M37,20h2v1h-2z M43,20h1v1h-1z M6,21h1v2h-1z M11,21h1v1h-1z M13,21h1v1h-1z M15,21h1v1h-1z M18,21h1v1h-1z M22,21h1v1h-1z M29,21h1v1h-1z M31,21h3v1h-3z M35,21h1v1h-1z M37,21h1v1h-1z M39,21h1v1h-1z M4,22h1v2h-1z M7,22h1v1h-1z M9,22h2v1h-2z M19,22h1v1h-1z M23,22h1v3h-1z M25,22h1v3h-1z M27,22h2v1h-2z M30,22h1v1h-1z M32,22h1v6h-1z M34,22h1v5h-1z M38,22h1v1h-1z M41,22h2v1h-2z M47,22h1v1h-1z M5,23h1v2h-1z M13,23h4v1h-4z M21,23h1v2h-1z M24,23h1v8h-1z M28,23h1v6h-1z M36,23h1v1h-1z M39,23h1v3h-1z M43,23h4v1h-4z M8,24h1v6h-1z M9,24h3v1h-3z M13,24h2v1h-2z M16,24h1v1h-1z M19,24h1v1h-1z M22,24h1v3h-1z M26,24h2v1h-2z M29,24h1v1h-1z M31,24h1v3h-1z M33,24h1v1h-1z M35,24h1v1h-1z M37,24h1v1h-1z M41,24h4v1h-4z M47,24h2v1h-2z M7,25h1v1h-1z M14,25h1v1h-1z M20,25h1v1h-1z M30,25h1v4h-1z M44,25h3v2h-3z M4,26h2v2h-2z M10,26h1v1h-1z M13,26h1v1h-1z M17,26h3v2h-3z M26,26h1v1h-1z M29,26h1v1h-1z M33,26h1v1h-1z M35,26h1v1h-1z M37,26h2v1h-2z M42,26h1v1h-1z M47,26h1v1h-1z M15,27h1v4h-1z M20,27h2v1h-2z M38,27h1v2h-1z M44,27h1v2h-1z M46,27h1v1h-1z M7,28h1v1h-1z M9,28h3v1h-3z M13,28h1v1h-1z M16,28h1v3h-1z M19,28h1v4h-1z M21,28h2v1h-2z M25,28h3v1h-3z M29,28h1v3h-1z M35,28h2v1h-2z M41,28h3v1h-3z M45,28h1v1h-1z M47,28h2v1h-2z M4,29h1v1h-1z M11,29h1v1h-1z M14,29h1v1h-1z M18,29h1v1h-1z M20,29h1v2h-1z M23,29h1v1h-1z M27,29h1v1h-1z M32,29h1v1h-1z M36,29h1v2h-1z M41,29h1v1h-1z M48,29h1v1h-1z M6,30h1v4h-1z M9,30h2v1h-2z M13,30h1v4h-1z M17,30h1v4h-1z M25,30h1v2h-1z M31,30h1v1h-1z M33,30h1v2h-1z M35,30h1v1h-1z M37,30h2v1h-2z M40,30h1v1h-1z M43,30h1v3h-1z M47,30h1v1h-1z M5,31h1v1h-1z M7,31h1v1h-1z M11,31h1v2h-1z M14,31h1v1h-1z M21,31h3v1h-3z M26,31h1v1h-1z M28,31h1v1h-1z M30,31h1v1h-1z M32,31h1v1h-1z M34,31h1v1h-1z M38,31h2v1h-2z M41,31h2v1h-2z M44,31h3v1h-3z M9,32h1v3h-1z M10,32h1v1h-1z M15,32h1v3h-1z M16,32h1v1h-1z M20,32h1v2h-1z M22,32h2v1h-2z M29,32h1v2h-1z M31,32h1v1h-1z M35,32h1v3h-1z M37,32h2v1h-2z M40,32h1v1h-1z M42,32h1v1h-1z M48,32h1v1h-1z M4,33h2v1h-2z M7,33h1v3h-1z M14,33h1v2h-1z M19,33h1v1h-1z M21,33h1v4h-1z M24,33h3v2h-3z M27,33h2v1h-2z M30,33h1v1h-1z M32,33h1v2h-1z M37,33h1v1h-1z M39,33h1v3h-1z M45,33h1v7h-1z M5,34h1v2h-1z M8,34h1v2h-1z M10,34h1v1h-1z M12,34h1v3h-1z M16,34h1v1h-1z M22,34h2v1h-2z M28,34h1v1h-1z M38,34h1v2h-1z M40,34h1v3h-1z M41,34h1v1h-1z M44,34h1v1h-1z M46,34h2v2h-2z M6,35h1v2h-1z M13,35h1v1h-1z M17,35h2v1h-2z M20,35h1v1h-1z M23,35h1v7h-1z M27,35h1v4h-1z M30,35h1v3h-1z M31,35h1v1h-1z M33,35h1v2h-1z M42,35h2v1h-2z M10,36h1v1h-1z M15,36h1v1h-1z M25,36h2v3h-2z M29,36h1v1h-1z M35,36h1v4h-1z M37,36h1v2h-1z M41,36h1v2h-1z M43,36h2v1h-2z M48,36h1v2h-1z M4,37h2v1h-2z M7,37h1v1h-1z M9,37h1v1h-1z M11,37h1v4h-1z M14,37h1v2h-1z M16,37h3v1h-3z M24,37h1v2h-1z M28,37h1v2h-1z M31,37h2v2h-2z M34,37h1v1h-1z M39,37h1v3h-1z M46,37h1v4h-1z M47,37h1v1h-1z M8,38h1v3h-1z M10,38h1v1h-1z M19,38h4v1h-4z M29,38h1v2h-1z M33,38h1v2h-1z M38,38h1v3h-1z M43,38h1v3h-1z M5,39h3v1h-3z M12,39h1v3h-1z M16,39h2v1h-2z M19,39h2v1h-2z M26,39h1v2h-1z M31,39h1v2h-1z M36,39h2v1h-2z M40,39h1v8h-1z M42,39h1v2h-1z M4,40h1v1h-1z M7,40h1v1h-1z M10,40h1v1h-1z M17,40h2v1h-2z M20,40h1v1h-1z M22,40h1v1h-1z M24,40h1v9h-1z M25,40h1v1h-1z M27,40h2v1h-2z M30,40h1v1h-1z M41,40h1v1h-1z M44,40h1v6h-1z M13,41h4v1h-4z M18,41h2v1h-2z M21,41h1v1h-1z M28,41h1v6h-1z M32,41h1v1h-1z M34,41h1v1h-1z M36,41h1v2h-1z M45,41h1v3h-1z M48,41h1v1h-1z M4,42h7v1h-7z M15,42h2v1h-2z M18,42h1v1h-1z M26,42h1v1h-1z M29,42h2v1h-2z M33,42h1v2h-1z M37,42h1v1h-1z M39,42h1v1h-1z M42,42h1v1h-1z M4,43h1v6h-1z M10,43h1v6h-1z M13,43h2v2h-2z M16,43h2v2h-2z M20,43h1v6h-1z M30,43h3v1h-3z M38,43h1v2h-1z M46,43h2v1h-2z M6,44h3v3h-3z M12,44h1v3h-1z M15,44h1v3h-1z M23,44h1v2h-1z M25,44h2v2h-2z M27,44h1v1h-1z M30,44h1v2h-1z M34,44h2v1h-2z M41,44h3v1h-3z M47,44h1v2h-1z M13,45h1v2h-1z M17,45h3v1h-3z M21,45h1v1h-1z M29,45h1v2h-1z M33,45h2v1h-2z M36,45h1v2h-1z M39,45h1v3h-1z M43,45h1v1h-1z M45,45h2v2h-2z M48,45h1v1h-1z M16,46h1v1h-1z M22,46h1v3h-1z M32,46h1v3h-1z M37,46h2v1h-2z M42,46h1v1h-1z M14,47h1v2h-1z M17,47h1v1h-1z M25,47h2v1h-2z M30,47h1v2h-1z M33,47h1v1h-1z M38,47h1v1h-1z M41,47h1v1h-1z M43,47h2v2h-2z M46,47h1v1h-1z M5,48h5v1h-5z M15,48h2v1h-2z M21,48h1v1h-1z M23,48h1v1h-1z M26,48h1v1h-1z M29,48h1v1h-1z M31,48h1v1h-1z M45,48h1v1h-1z M47,48h1v1h-1z" fill="#000000"/>
</svg>
