<?xml version="1.0" encoding="UTF-8"?>
<!DOCTYPE svg PUBLIC "-//W3C//DTD SVG 1.1//EN" "http://www.w3.org/Graphics/SVG/1.1/DTD/svg11.dtd">
<svg xmlns="http://www.w3.org/2000/svg" version="1.1" viewBox="0 0 37 37" stroke="none">
	<rect width="100%" height="100%" fill="#ffffff"/>
	<path d="M4,4h7v1h-7z M13,4h1v2h-1z M17,4h1v1h-1z M19,4h1v2h-1z M22,4h2v1h-2z M26,4h7v1h-7z M4,5h1v6h-1z M10,5h1v6h-1z M12,5h1v1h-1z M14,5h1v2h-1z M20,5h1v2h-1z M24,5h1v2h-1z M26,5h1v6h-1z M32,5h1v6h-1z M6,6h3v3h-3z M16,6h3v1h-3z M21,6h3v1h-3z M28,6h3v3h-3z M13,7h1v3h-1z M15,7h1v1h-1z M18,7h1v2h-1z M22,7h2v1h-2z M14,8h1v1h-1z M17,8h1v1h-1z M19,8h1v2h-1z M12,9h1v3h-1z M15,9h2v1h-2z M22,9h1v4h-1z M23,9h2v1h-2z M5,10h5v1h-5z M14,10h1v1h-1z M16,10h1v1h-1z M18,10h1v2h-1z M20,10h1v1h-1z M24,10h1v4h-1z M27,10h5v1h-5z M13,11h1v1h-1z M17,11h1v2h-1z M19,11h1v1h-1z M21,11h1v1h-1z M8,12h4v1h-4z M14,12h1v3h-1z M16,12h1v4h-1z M23,12h1v2h-1z M26,12h2v2h-2z M31,12h1v2h-1z M4,13h1v1h-1z M6,13h2v1h-2z M9,13h1v2h-1z M11,13h1v1h-1z M18,13h1v2h-1z M28,13h1v2h-1z M32,13h1v6h-1z M5,14h1v1h-1z M7,14h1v2h-1z M10,14h1v1h-1z M13,14h1v2h-1z M15,14h1v4h-1z M17,14h1v1h-1z M19,14h3v2h-3z M29,14h1v3h-1z M4,15h1v1h-1z M6,15h1v1h-1z M11,15h2v2h-2z M22,15h1v4h-1z M31,15h1v1h-1z M8,16h3v1h-3z M14,16h1v2h-1z M17,16h1v4h-1z M20,16h1v3h-1z M21,16h1v1h-1z M24,16h1v1h-1z M5,17h1v2h-1z M13,17h1v6h-1z M16,17h1v5h-1z M18,17h2v2h-2z M26,17h1v1h-1z M28,17h1v3h-1z M30,17h1v1h-1z M6,18h7v1h-7z M21,18h1v4h-1z M24,18h2v1h-2z M27,18h1v5h-1z M4,19h1v1h-1z M8,19h1v2h-1z M12,19h1v2h-1z M15,19h1v1h-1z M19,19h1v1h-1z M26,19h1v1h-1z M29,19h1v1h-1z M31,19h1v2h-1z M7,20h1v3h-1z M10,20h1v1h-1z M14,20h1v1h-1z M20,20h1v2h-1z M22,20h4v1h-4z M32,20h1v3h-1z M4,21h2v1h-2z M9,21h1v1h-1z M15,21h1v2h-1z M19,21h1v1h-1z M25,21h2v1h-2z M28,21h1v1h-1z M30,21h1v1h-1z M6,22h1v1h-1z M10,22h1v1h-1z M14,22h1v2h-1z M18,22h1v1h-1z M24,22h1v1h-1z M29,22h1v1h-1z M8,23h2v1h-2z M12,23h1v1h-1z M17,23h1v1h-1z M21,23h3v1h-3z M31,23h1v2h-1z M4,24h5v1h-5z M10,24h1v1h-1z M15,24h2v2h-2z M18,24h2v1h-2z M22,24h8v1h-8z M12,25h1v4h-1z M13,25h1v1h-1z M18,25h1v1h-1z M21,25h2v2h-2z M24,25h1v8h-1z M28,25h1v4h-1z M30,25h1v1h-1z M32,25h1v2h-1z M4,26h7v1h-7z M15,26h1v1h-1z M17,26h1v3h-1z M23,26h1v5h-1z M26,26h1v1h-1z M31,26h1v7h-1z M4,27h1v6h-1z M10,27h1v6h-1z M16,27h1v5h-1z M18,27h1v1h-1z M20,27h2v1h-2z M29,27h1v1h-1z M6,28h3v3h-3z M13,28h1v1h-1z M19,28h1v1h-1z M21,28h1v1h-1z M25,28h3v1h-3z M14,29h1v1h-1z M18,29h1v2h-1z M22,29h1v4h-1z M25,29h1v2h-1z M27,29h1v3h-1z M15,30h1v2h-1z M17,30h1v1h-1z M20,30h1v1h-1z M29,30h2v1h-2z M32,30h1v2h-1z M13,31h1v2h-1z M21,31h1v2h-1z M26,31h1v1h-1z M29,31h1v1h-1z M5,32h5v1h-5z M14,32h1v1h-1z M20,32h1v1h-1z M28,32h1v1h-1z" fill="#000000"/>
</svg>
