<?xml version="1.0" encoding="UTF-8"?>
<!DOCTYPE svg PUBLIC "-//W3C//DTD SVG 1.1//EN" "http://www.w3.org/Graphics/SVG/1.1/DTD/svg11.dtd">
<svg xmlns="http://www.w3.org/2000/svg" version="1.1" viewBox="0 0 37 37" stroke="none">
	<rect width="100%" height="100%" fill="#ffffff"/>
	<path d="M4,4h7v1h-7z M14,4h1v1h-1z M17,4h2v1h-2z M20,4h1v1h-1z M22,4h3v1h-3z M26,4h7v1h-7z M4,5h1v6h-1z M10,5h1v6h-1z M13,5h1v2h-1z M16,5h1v1h-1z M19,5h1v2h-1z M21,5h2v1h-2z M26,5h1v6h-1z M32,5h1v6h-1z M6,6h3v3h-3z M15,6h1v4h-1z M18,6h1v1h-1z M20,6h1v5h-1z M22,6h2v1h-2z M28,6h3v3h-3z M14,7h1v1h-1z M17,7h1v1h-1z M21,7h1v1h-1z M23,7h1v3h-1z M12,8h2v1h-2z M16,8h1v4h-1z M18,8h1v3h-1z M22,8h1v3h-1z M14,9h1v5h-1z M17,9h1v1h-1z M19,9h1v1h-1z M21,9h1v1h-1z M5,10h5v1h-5z M12,10h1v6h-1z M24,10h1v1h-1z M27,10h5v1h-5z M13,11h1v2h-1z M15,11h1v2h-1z M17,11h1v1h-1z M21,11h1v1h-1z M6,12h2v1h-2z M10,12h2v1h-2z M18,12h2v1h-2z M23,12h1v2h-1z M25,12h2v3h-2z M28,12h1v2h-1z M8,13h2v1h-2z M16,13h2v2h-2z M21,13h2v1h-2z M24,13h1v3h-1z M27,13h1v1h-1z M29,13h2v2h-2z M32,13h1v1h-1z M5,14h1v3h-1z M9,14h2v1h-2z M20,14h1v2h-1z M22,14h1v1h-1z M31,14h1v1h-1z M4,15h1v1h-1z M8,15h1v3h-1z M9,15h1v1h-1z M11,15h1v3h-1z M13,15h1v1h-1z M15,15h1v2h-1z M18,15h1v3h-1z M19,15h1v1h-1z M23,15h1v1h-1z M25,15h1v2h-1z M28,15h1v1h-1z M32,15h1v6h-1z M6,16h1v3h-1z M10,16h1v1h-1z M21,16h2v2h-2z M30,16h2v1h-2z M4,17h1v2h-1z M13,17h2v2h-2z M16,17h1v1h-1z M19,17h2v2h-2z M23,17h1v2h-1z M26,17h2v1h-2z M29,17h1v4h-1z M30,17h1v1h-1z M5,18h1v3h-1z M7,18h1v2h-1z M9,18h2v1h-2z M17,18h1v1h-1z M22,18h1v1h-1z M24,18h2v1h-2z M28,18h1v1h-1z M31,18h1v3h-1z M12,19h2v1h-2z M15,19h1v1h-1z M19,19h1v1h-1z M21,19h1v2h-1z M25,19h2v1h-2z M4,20h1v1h-1z M9,20h4v1h-4z M16,20h1v1h-1z M20,20h1v4h-1z M22,20h1v5h-1z M24,20h1v3h-1z M25,20h1v1h-1z M27,20h2v1h-2z M6,21h1v2h-1z M15,21h1v2h-1z M18,21h1v1h-1z M27,21h1v1h-1z M4,22h1v1h-1z M7,22h1v1h-1z M10,22h2v1h-2z M13,22h2v1h-2z M16,22h2v1h-2z M19,22h1v1h-1z M26,22h1v3h-1z M28,22h1v8h-1z M29,22h1v1h-1z M8,23h1v1h-1z M11,23h1v2h-1z M14,23h1v1h-1z M17,23h2v2h-2z M21,23h1v1h-1z M25,23h1v2h-1z M30,23h1v2h-1z M5,24h1v1h-1z M7,24h1v1h-1z M9,24h2v1h-2z M12,24h1v3h-1z M16,24h1v1h-1z M23,24h2v3h-2z M27,24h1v1h-1z M29,24h1v2h-1z M13,25h1v5h-1z M15,25h1v2h-1z M18,25h1v6h-1z M21,25h1v2h-1z M31,25h2v1h-2z M4,26h7v1h-7z M14,26h1v1h-1z M16,26h2v1h-2z M26,26h1v1h-1z M30,26h1v1h-1z M4,27h1v6h-1z M10,27h1v6h-1z M17,27h1v5h-1z M20,27h1v1h-1z M22,27h1v1h-1z M24,27h1v6h-1z M6,28h3v3h-3z M21,28h1v1h-1z M25,28h3v1h-3z M29,28h2v1h-2z M12,29h1v2h-1z M14,29h1v3h-1z M16,29h1v1h-1z M19,29h2v2h-2z M22,29h1v3h-1z M25,29h1v1h-1z M29,29h1v1h-1z M31,29h1v1h-1z M15,30h1v1h-1z M30,30h1v1h-1z M32,30h1v1h-1z M13,31h1v1h-1z M19,31h1v2h-1z M21,31h1v2h-1z M25,31h2v2h-2z M28,31h2v1h-2z M31,31h1v2h-1z M5,32h5v1h-5z M16,32h1v1h-1z M18,32h1v1h-1z M20,32h1v1h-1z M23,32h1v1h-1z M27,32h1v1h-1z" fill="#000000"/>
</svg>
