<?xml version="1.0" encoding="UTF-8"?>
<!DOCTYPE svg PUBLIC "-//W3C//DTD SVG 1.1//EN" "http://www.w3.org/Graphics/SVG/1.1/DTD/svg11.dtd">
<svg xmlns="http://www.w3.org/2000/svg" version="1.1" viewBox="0 0 37 37" stroke="none">
	<rect width="100%" height="100%" fill="#ffffff"/>
	<path d="M4,4h7v1h-7z M12,4h2v1h-2z M16,4h2v3h-2z M19,4h2v2h-2z M22,4h2v2h-2z M26,4h7v1h-7z M4,5h1v6h-1z M10,5h1v6h-1z M15,5h1v3h-1z M18,5h1v1h-1z M21,5h1v1h-1z M24,5h1v1h-1z M26,5h1v6h-1z M32,5h1v6h-1z M6,6h3v3h-3z M13,6h1v1h-1z M20,6h1v2h-1z M23,6h1v1h-1z M28,6h3v3h-3z M12,7h1v1h-1z M14,7h1v4h-1z M16,7h1v1h-1z M19,7h1v1h-1z M22,7h1v1h-1z M18,8h1v1h-1z M21,8h1v1h-1z M23,8h1v2h-1z M13,9h1v1h-1z M16,9h1v6h-1z M17,9h1v1h-1z M22,9h1v2h-1z M5,10h5v1h-5z M12,10h1v1h-1z M18,10h1v2h-1z M20,10h1v1h-1z M24,10h1v8h-1z M27,10h5v1h-5z M13,11h1v1h-1z M15,11h1v2h-1z M19,11h1v3h-1z M21,11h1v1h-1z M23,11h1v1h-1z M6,12h1v2h-1z M8,12h2v2h-2z M10,12h1v1h-1z M12,12h1v1h-1z M14,12h1v1h-1z M17,12h1v1h-1z M20,12h1v1h-1z M22,12h1v1h-1z M25,12h1v1h-1z M29,12h1v1h-1z M32,12h1v3h-1z M4,13h2v3h-2z M7,13h1v2h-1z M18,13h1v1h-1z M26,13h1v1h-1z M30,13h1v2h-1z M8,14h1v1h-1z M10,14h2v1h-2z M14,14h1v6h-1z M17,14h1v1h-1z M20,14h2v1h-2z M25,14h1v1h-1z M27,14h3v1h-3z M31,14h1v2h-1z M12,15h1v8h-1z M15,15h1v1h-1z M18,15h1v1h-1z M21,15h1v2h-1z M23,15h1v1h-1z M26,15h1v7h-1z M27,15h1v1h-1z M5,16h1v2h-1z M7,16h1v4h-1z M10,16h2v1h-2z M13,16h1v1h-1z M20,16h1v3h-1z M22,16h1v8h-1z M4,17h1v1h-1z M8,17h1v7h-1z M16,17h1v5h-1z M25,17h1v1h-1z M27,17h1v1h-1z M31,17h1v7h-1z M32,17h1v3h-1z M9,18h1v4h-1z M10,18h2v1h-2z M17,18h1v2h-1z M19,18h1v2h-1z M30,18h1v1h-1z M5,19h1v3h-1z M11,19h1v2h-1z M13,19h1v1h-1z M18,19h1v2h-1z M21,19h1v1h-1z M23,19h1v1h-1z M27,19h2v1h-2z M10,20h1v1h-1z M15,20h1v4h-1z M20,20h1v2h-1z M24,20h2v1h-2z M29,20h1v1h-1z M6,21h1v2h-1z M13,21h1v1h-1z M19,21h1v1h-1z M21,21h1v1h-1z M24,21h1v1h-1z M32,21h1v2h-1z M4,22h1v1h-1z M10,22h1v1h-1z M17,22h2v1h-2z M25,22h1v1h-1z M27,22h4v1h-4z M5,23h1v1h-1z M7,23h1v2h-1z M11,23h1v1h-1z M13,23h2v1h-2z M16,23h1v1h-1z M20,23h2v1h-2z M24,23h1v6h-1z M26,23h1v2h-1z M28,23h1v8h-1z M29,23h1v1h-1z M4,24h1v1h-1z M6,24h1v1h-1z M9,24h2v1h-2z M23,24h1v1h-1z M25,24h1v1h-1z M27,24h1v1h-1z M12,25h1v1h-1z M16,25h1v1h-1z M18,25h1v3h-1z M22,25h1v1h-1z M31,25h2v1h-2z M4,26h7v1h-7z M13,26h1v3h-1z M17,26h1v3h-1z M20,26h1v1h-1z M23,26h1v1h-1z M26,26h1v1h-1z M30,26h1v1h-1z M32,26h1v3h-1z M4,27h1v6h-1z M10,27h1v6h-1z M12,27h1v2h-1z M14,27h1v6h-1z M15,27h1v1h-1z M19,27h1v2h-1z M22,27h1v1h-1z M31,27h1v2h-1z M6,28h3v3h-3z M16,28h1v4h-1z M20,28h2v1h-2z M25,28h3v1h-3z M29,28h1v1h-1z M15,29h1v2h-1z M22,29h2v1h-2z M30,29h1v1h-1z M12,30h1v1h-1z M19,30h1v3h-1z M23,30h1v3h-1z M29,30h1v1h-1z M32,30h1v1h-1z M13,31h1v1h-1z M20,31h1v1h-1z M24,31h1v2h-1z M27,31h1v1h-1z M31,31h1v2h-1z M5,32h5v1h-5z M18,32h1v1h-1z M22,32h1v1h-1z M26,32h1v1h-1z M28,32h1v1h-1z M32,32h1v1h-1z" fill="#000000"/>
</svg>
