<?xml version="1.0" encoding="UTF-8"?>
<!DOCTYPE svg PUBLIC "-//W3C//DTD SVG 1.1//EN" "http://www.w3.org/Graphics/SVG/1.1/DTD/svg11.dtd">
<svg xmlns="http://www.w3.org/2000/svg" version="1.1" viewBox="0 0 57 57" stroke="none">
	<rect width="100%" height="100%" fill="#ffffff"/>
	<path d="M4,4h7v1h-7z M12,4h1v3h-1z M15,4h1v3h-1z M16,4h1v1h-1z M18,4h2v1h-2z M21,4h1v1h-1z M24,4h1v1h-1z M26,4h3v1h-3z M30,4h5v1h-5z M36,4h1v2h-1z M39,4h3v1h-3z M44,4h1v3h-1z M46,4h7v1h-7z M4,5h1v6h-1z M10,5h1v6h-1z M20,5h1v2h-1z M22,5h1v4h-1z M23,5h1v1h-1z M25,5h2v2h-2z M38,5h1v1h-1z M41,5h3v1h-3z M46,5h1v6h-1z M52,5h1v6h-1z M6,6h3v3h-3z M17,6h2v1h-2z M27,6h1v1h-1z M30,6h1v10h-1z M31,6h4v1h-4z M37,6h1v1h-1z M39,6h1v3h-1z M43,6h1v2h-1z M48,6h3v3h-3z M13,7h1v3h-1z M18,7h1v2h-1z M21,7h1v1h-1z M23,7h2v1h-2z M32,7h1v1h-1z M34,7h1v4h-1z M36,7h1v6h-1z M38,7h1v1h-1z M40,7h1v5h-1z M41,7h1v2h-1z M19,8h2v1h-2z M24,8h6v1h-6z M33,8h1v1h-1z M12,9h1v4h-1z M17,9h1v1h-1z M21,9h1v1h-1z M25,9h2v1h-2z M38,9h1v3h-1z M42,9h1v2h-1z M5,10h5v1h-5z M14,10h1v4h-1z M16,10h1v2h-1z M18,10h1v4h-1z M20,10h1v3h-1z M22,10h1v2h-1z M24,10h1v1h-1z M26,10h1v4h-1z M28,10h1v1h-1z M32,10h1v1h-1z M44,10h1v3h-1z M47,10h5v1h-5z M13,11h1v1h-1z M17,11h1v1h-1z M19,11h1v3h-1z M31,11h1v4h-1z M33,11h1v2h-1z M35,11h1v2h-1z M41,11h1v2h-1z M6,12h3v1h-3z M10,12h1v1h-1z M15,12h1v2h-1z M25,12h1v1h-1z M27,12h2v2h-2z M29,12h1v1h-1z M32,12h1v2h-1z M37,12h1v2h-1z M39,12h1v1h-1z M43,12h1v2h-1z M45,12h3v1h-3z M50,12h3v1h-3z M4,13h2v1h-2z M7,13h2v1h-2z M13,13h1v2h-1z M17,13h1v1h-1z M46,13h1v1h-1z M48,13h1v1h-1z M4,14h1v1h-1z M10,14h2v1h-2z M20,14h1v1h-1z M23,14h1v1h-1z M25,14h1v3h-1z M28,14h1v3h-1z M29,14h1v1h-1z M34,14h1v2h-1z M38,14h2v1h-2z M41,14h1v5h-1z M42,14h1v1h-1z M47,14h1v2h-1z M49,14h1v1h-1z M51,14h2v2h-2z M5,15h2v1h-2z M8,15h1v5h-1z M9,15h1v2h-1z M11,15h1v3h-1z M15,15h1v2h-1z M17,15h1v2h-1z M19,15h1v1h-1z M21,15h1v2h-1z M24,15h1v3h-1z M32,15h1v3h-1z M36,15h1v1h-1z M38,15h1v1h-1z M43,15h1v1h-1z M48,15h1v1h-1z M4,16h2v1h-2z M7,16h1v3h-1z M10,16h1v1h-1z M13,16h2v1h-2z M16,16h1v3h-1z M18,16h1v1h-1z M20,16h1v1h-1z M23,16h1v1h-1z M26,16h1v1h-1z M29,16h1v4h-1z M37,16h1v1h-1z M39,16h2v1h-2z M42,16h1v1h-1z M44,16h1v1h-1z M50,16h1v3h-1z M52,16h1v4h-1z M4,17h1v1h-1z M6,17h1v4h-1z M12,17h1v2h-1z M14,17h1v3h-1z M19,17h1v1h-1z M22,17h1v2h-1z M30,17h1v5h-1z M33,17h1v1h-1z M35,17h2v1h-2z M43,17h1v2h-1z M46,17h1v1h-1z M5,18h1v4h-1z M9,18h2v1h-2z M17,18h1v3h-1z M23,18h1v1h-1z M26,18h1v2h-1z M28,18h1v5h-1z M34,18h1v8h-1z M38,18h2v1h-2z M42,18h1v1h-1z M47,18h3v1h-3z M51,18h1v3h-1z M4,19h1v1h-1z M13,19h1v8h-1z M18,19h1v2h-1z M24,19h1v4h-1z M31,19h3v1h-3z M35,19h1v1h-1z M37,19h1v1h-1z M40,19h1v2h-1z M45,19h1v2h-1z M48,19h1v1h-1z M10,20h2v1h-2z M15,20h1v1h-1z M19,20h1v2h-1z M21,20h2v1h-2z M27,20h1v3h-1z M32,20h1v4h-1z M39,20h1v1h-1z M41,20h1v1h-1z M43,20h1v1h-1z M47,20h1v2h-1z M49,20h2v1h-2z M7,21h3v2h-3z M11,21h1v1h-1z M14,21h1v4h-1z M16,21h1v1h-1z M20,21h1v6h-1z M21,21h1v1h-1z M23,21h1v2h-1z M31,21h1v3h-1z M33,21h1v3h-1z M36,21h1v3h-1z M37,21h1v1h-1z M44,21h1v4h-1z M46,21h1v1h-1z M50,21h1v1h-1z M10,22h1v1h-1z M12,22h1v3h-1z M15,22h1v1h-1z M17,22h1v3h-1z M22,22h1v1h-1z M26,22h1v1h-1z M40,22h2v1h-2z M43,22h1v1h-1z M45,22h1v1h-1z M48,22h1v1h-1z M51,22h2v1h-2z M4,23h3v1h-3z M9,23h1v1h-1z M16,23h1v1h-1z M18,23h2v2h-2z M29,23h2v1h-2z M35,23h1v1h-1z M42,23h1v2h-1z M46,23h1v4h-1z M52,23h1v4h-1z M6,24h1v2h-1z M10,24h2v1h-2z M15,24h1v1h-1z M22,24h5v1h-5z M30,24h1v8h-1z M39,24h2v2h-2z M45,24h1v3h-1z M47,24h1v3h-1z M49,24h1v2h-1z M51,24h1v1h-1z M4,25h2v1h-2z M7,25h2v1h-2z M16,25h1v1h-1z M23,25h1v2h-1z M26,25h3v2h-3z M31,25h1v2h-1z M36,25h1v2h-1z M41,25h1v1h-1z M48,25h1v6h-1z M5,26h1v1h-1z M8,26h5v1h-5z M18,26h1v3h-1z M22,26h1v1h-1z M24,26h1v1h-1z M29,26h1v1h-1z M32,26h2v1h-2z M37,26h2v1h-2z M40,26h1v1h-1z M44,26h1v8h-1z M51,26h1v2h-1z M7,27h2v3h-2z M12,27h1v6h-1z M14,27h4v1h-4z M26,27h1v4h-1z M33,27h2v4h-2z M37,27h1v1h-1z M41,27h2v1h-2z M4,28h2v1h-2z M10,28h1v1h-1z M14,28h2v1h-2z M21,28h2v3h-2z M25,28h1v1h-1z M28,28h1v1h-1z M31,28h2v1h-2z M35,28h2v1h-2z M38,28h3v1h-3z M46,28h1v1h-1z M49,28h2v1h-2z M4,29h1v1h-1z M13,29h1v2h-1z M16,29h1v3h-1z M20,29h1v3h-1z M23,29h1v6h-1z M36,29h1v3h-1z M37,29h1v1h-1z M39,29h2v4h-2z M41,29h1v1h-1z M49,29h1v1h-1z M5,30h2v3h-2z M8,30h4v1h-4z M14,30h1v9h-1z M15,30h1v1h-1z M18,30h2v2h-2z M24,30h1v1h-1z M27,30h3v1h-3z M31,30h2v2h-2z M35,30h1v6h-1z M38,30h1v1h-1z M43,30h1v1h-1z M45,30h2v2h-2z M47,30h1v1h-1z M52,30h1v1h-1z M4,31h1v1h-1z M7,31h1v1h-1z M17,31h1v2h-1z M21,31h1v1h-1z M25,31h1v2h-1z M41,31h2v1h-2z M10,32h2v1h-2z M13,32h1v3h-1z M15,32h1v1h-1z M18,32h1v2h-1z M22,32h1v1h-1z M27,32h3v1h-3z M31,32h1v1h-1z M34,32h1v2h-1z M37,32h1v1h-1z M42,32h2v1h-2z M45,32h1v1h-1z M48,32h2v1h-2z M51,32h1v3h-1z M52,32h1v1h-1z M4,33h2v1h-2z M7,33h1v2h-1z M9,33h1v1h-1z M11,33h1v2h-1z M20,33h1v2h-1z M24,33h1v1h-1z M28,33h1v2h-1z M30,33h1v3h-1z M33,33h1v1h-1z M41,33h1v2h-1z M43,33h1v1h-1z M46,33h1v2h-1z M8,34h1v1h-1z M10,34h1v1h-1z M12,34h1v1h-1z M15,34h2v1h-2z M21,34h1v2h-1z M25,34h2v2h-2z M31,34h2v1h-2z M37,34h1v3h-1z M42,34h1v3h-1z M45,34h1v1h-1z M47,34h1v3h-1z M49,34h1v1h-1z M52,34h1v3h-1z M4,35h1v3h-1z M9,35h1v1h-1z M18,35h2v1h-2z M24,35h1v1h-1z M27,35h1v1h-1z M29,35h1v4h-1z M32,35h1v1h-1z M34,35h1v3h-1z M38,35h3v1h-3z M44,35h1v2h-1z M5,36h2v4h-2z M7,36h2v1h-2z M10,36h4v1h-4z M16,36h2v1h-2z M19,36h2v1h-2z M22,36h1v2h-1z M28,36h1v2h-1z M31,36h1v1h-1z M38,36h1v1h-1z M40,36h2v3h-2z M43,36h1v1h-1z M48,36h4v1h-4z M11,37h3v2h-3z M18,37h1v4h-1z M19,37h1v1h-1z M21,37h1v1h-1z M26,37h1v5h-1z M27,37h1v1h-1z M35,37h1v1h-1z M39,37h1v1h-1z M49,37h1v2h-1z M51,37h1v2h-1z M7,38h1v1h-1z M10,38h1v1h-1z M20,38h1v2h-1z M25,38h1v1h-1z M30,38h1v2h-1z M33,38h1v3h-1z M37,38h2v1h-2z M43,38h1v1h-1z M45,38h4v1h-4z M52,38h1v2h-1z M8,39h1v3h-1z M17,39h1v6h-1z M19,39h1v1h-1z M23,39h1v1h-1z M28,39h1v1h-1z M31,39h2v1h-2z M34,39h1v3h-1z M36,39h2v1h-2z M41,39h1v5h-1z M44,39h1v1h-1z M7,40h1v1h-1z M9,40h4v1h-4z M15,40h1v3h-1z M21,40h1v1h-1z M24,40h2v1h-2z M27,40h1v1h-1z M29,40h1v5h-1z M32,40h1v2h-1z M35,40h1v1h-1z M40,40h1v1h-1z M42,40h2v1h-2z M45,40h1v1h-1z M47,40h1v5h-1z M48,40h1v1h-1z M50,40h2v1h-2z M4,41h2v1h-2z M9,41h1v2h-1z M11,41h3v1h-3z M16,41h1v1h-1z M19,41h1v1h-1z M28,41h1v1h-1z M31,41h1v2h-1z M39,41h1v6h-1z M43,41h2v1h-2z M50,41h1v1h-1z M52,41h1v4h-1z M5,42h1v3h-1z M10,42h2v1h-2z M14,42h1v1h-1z M18,42h1v4h-1z M20,42h1v5h-1z M23,42h1v1h-1z M25,42h1v3h-1z M27,42h1v3h-1z M33,42h1v2h-1z M35,42h1v3h-1z M37,42h2v1h-2z M40,42h1v5h-1z M42,42h1v4h-1z M45,42h2v1h-2z M51,42h1v5h-1z M6,43h2v1h-2z M11,43h3v1h-3z M24,43h1v2h-1z M34,43h1v1h-1z M36,43h1v1h-1z M38,43h1v3h-1z M43,43h2v3h-2z M4,44h1v1h-1z M6,44h1v1h-1z M10,44h1v1h-1z M12,44h2v2h-2z M15,44h2v1h-2z M19,44h1v2h-1z M21,44h1v2h-1z M23,44h1v1h-1z M26,44h1v5h-1z M28,44h1v1h-1z M30,44h1v5h-1z M37,44h1v1h-1z M45,44h2v1h-2z M48,44h1v5h-1z M49,44h2v1h-2z M32,45h2v1h-2z M41,45h1v1h-1z M4,46h7v1h-7z M14,46h1v5h-1z M15,46h3v1h-3z M28,46h1v1h-1z M31,46h1v3h-1z M33,46h1v2h-1z M36,46h2v2h-2z M44,46h1v3h-1z M46,46h1v1h-1z M52,46h1v1h-1z M4,47h1v6h-1z M10,47h1v6h-1z M17,47h1v6h-1z M18,47h2v1h-2z M22,47h1v1h-1z M25,47h1v2h-1z M34,47h1v1h-1z M38,47h1v1h-1z M41,47h3v1h-3z M6,48h3v3h-3z M12,48h2v2h-2z M15,48h1v1h-1z M19,48h3v1h-3z M23,48h2v1h-2z M27,48h3v1h-3z M35,48h1v1h-1z M39,48h2v1h-2z M42,48h2v1h-2z M45,48h3v1h-3z M49,48h1v1h-1z M51,48h1v1h-1z M16,49h1v1h-1z M18,49h2v1h-2z M21,49h1v4h-1z M23,49h1v1h-1z M28,49h2v1h-2z M32,49h3v1h-3z M40,49h1v2h-1z M43,49h1v2h-1z M45,49h1v2h-1z M50,49h1v2h-1z M52,49h1v4h-1z M12,50h1v1h-1z M15,50h1v3h-1z M20,50h1v1h-1z M24,50h2v2h-2z M29,50h1v1h-1z M31,50h1v1h-1z M37,50h3v2h-3z M41,50h2v2h-2z M47,50h1v2h-1z M49,50h1v1h-1z M51,50h1v1h-1z M18,51h2v1h-2z M23,51h1v1h-1z M26,51h1v2h-1z M34,51h1v2h-1z M44,51h1v2h-1z M46,51h1v1h-1z M5,52h5v1h-5z M13,52h2v1h-2z M16,52h1v1h-1z M19,52h2v1h-2z M22,52h1v1h-1z M28,52h1v1h-1z M30,52h3v1h-3z M35,52h1v1h-1z M38,52h3v1h-3z M43,52h1v1h-1z M48,52h4v1h-4z" fill="#000000"/>
</svg>
