<?xml version="1.0" encoding="UTF-8"?>
<!DOCTYPE svg PUBLIC "-//W3C//DTD SVG 1.1//EN" "http://www.w3.org/Graphics/SVG/1.1/DTD/svg11.dtd">
<svg xmlns="http://www.w3.org/2000/svg" version="1.1" viewBox="0 0 73 73" stroke="none">
	<rect width="100%" height="100%" fill="#ffffff"/>
	<path d="M4,4h7v1h-7z M12,4h1v2h-1z M14,4h1v4h-1z M16,4h1v1h-1z M21,4h1v1h-1z M24,4h1v2h-1z M28,4h1v1h-1z M31,4h1v5h-1z M32,4h2v1h-2z M35,4h1v2h-1z M38,4h1v1h-1z M44,4h2v1h-2z M47,4h5v1h-5z M53,4h1v3h-1z M54,4h1v1h-1z M57,4h1v3h-1z M59,4h1v1h-1z M62,4h7v1h-7z M4,5h1v6h-1z M10,5h1v6h-1z M18,5h1v1h-1z M20,5h1v4h-1z M25,5h1v2h-1z M27,5h1v2h-1z M29,5h1v1h-1z M32,5h1v1h-1z M34,5h1v1h-1z M39,5h4v1h-4z M45,5h4v1h-4z M52,5h1v1h-1z M55,5h1v2h-1z M60,5h1v2h-1z M62,5h1v6h-1z M68,5h1v6h-1z M6,6h3v3h-3z M13,6h1v2h-1z M17,6h1v1h-1z M19,6h1v1h-1z M21,6h1v1h-1z M30,6h1v1h-1z M33,6h1v2h-1z M36,6h1v3h-1z M37,6h1v1h-1z M43,6h3v1h-3z M49,6h1v2h-1z M51,6h1v1h-1z M58,6h1v2h-1z M64,6h3v3h-3z M12,7h1v4h-1z M15,7h1v3h-1z M16,7h1v1h-1z M22,7h2v1h-2z M28,7h2v3h-2z M34,7h1v7h-1z M40,7h4v1h-4z M45,7h3v1h-3z M54,7h1v2h-1z M59,7h1v1h-1z M21,8h1v1h-1z M26,8h2v1h-2z M35,8h1v1h-1z M37,8h5v1h-5z M43,8h2v1h-2z M52,8h2v1h-2z M55,8h1v1h-1z M57,8h1v1h-1z M60,8h1v1h-1z M14,9h1v3h-1z M16,9h1v4h-1z M17,9h1v1h-1z M19,9h1v1h-1z M24,9h1v6h-1z M32,9h2v1h-2z M38,9h1v5h-1z M39,9h2v1h-2z M46,9h1v2h-1z M48,9h1v2h-1z M50,9h1v4h-1z M53,9h1v1h-1z M58,9h1v2h-1z M5,10h5v1h-5z M18,10h1v2h-1z M20,10h1v2h-1z M22,10h1v1h-1z M26,10h1v1h-1z M28,10h1v1h-1z M30,10h1v5h-1z M32,10h1v1h-1z M36,10h1v1h-1z M40,10h1v1h-1z M42,10h1v2h-1z M44,10h1v2h-1z M52,10h1v3h-1z M54,10h1v2h-1z M56,10h1v1h-1z M60,10h1v3h-1z M63,10h5v1h-5z M15,11h1v1h-1z M17,11h1v2h-1z M19,11h1v6h-1z M21,11h1v1h-1z M27,11h1v1h-1z M29,11h1v1h-1z M33,11h1v5h-1z M53,11h1v1h-1z M57,11h1v1h-1z M59,11h1v2h-1z M7,12h1v1h-1z M10,12h1v1h-1z M13,12h1v3h-1z M22,12h1v2h-1z M25,12h2v1h-2z M31,12h1v1h-1z M35,12h3v1h-3z M39,12h1v2h-1z M43,12h1v2h-1z M46,12h3v2h-3z M49,12h1v1h-1z M51,12h1v4h-1z M55,12h2v1h-2z M58,12h1v1h-1z M63,12h3v2h-3z M67,12h2v1h-2z M4,13h2v1h-2z M11,13h2v1h-2z M21,13h1v1h-1z M23,13h1v1h-1z M25,13h1v1h-1z M36,13h1v2h-1z M40,13h3v2h-3z M44,13h1v2h-1z M56,13h1v2h-1z M61,13h1v5h-1z M66,13h1v3h-1z M68,13h1v1h-1z M6,14h3v1h-3z M10,14h1v1h-1z M12,14h1v1h-1z M14,14h4v1h-4z M26,14h2v1h-2z M32,14h1v1h-1z M45,14h1v4h-1z M46,14h1v1h-1z M50,14h1v4h-1z M52,14h1v3h-1z M53,14h1v1h-1z M57,14h2v1h-2z M62,14h3v1h-3z M67,14h1v1h-1z M7,15h2v2h-2z M9,15h1v1h-1z M11,15h1v4h-1z M14,15h1v1h-1z M17,15h1v2h-1z M21,15h2v3h-2z M27,15h1v1h-1z M29,15h1v1h-1z M31,15h1v2h-1z M37,15h2v4h-2z M47,15h2v2h-2z M55,15h1v3h-1z M58,15h1v2h-1z M62,15h1v1h-1z M5,16h1v1h-1z M10,16h1v1h-1z M12,16h1v2h-1z M15,16h2v1h-2z M24,16h2v1h-2z M28,16h1v3h-1z M30,16h1v1h-1z M35,16h1v3h-1z M41,16h3v1h-3z M46,16h1v1h-1z M49,16h1v1h-1z M56,16h2v1h-2z M63,16h3v1h-3z M68,16h1v4h-1z M8,17h2v2h-2z M16,17h1v2h-1z M18,17h1v1h-1z M23,17h1v2h-1z M34,17h1v4h-1z M36,17h1v1h-1z M42,17h1v1h-1z M47,17h1v2h-1z M51,17h1v1h-1z M53,17h2v1h-2z M59,17h1v3h-1z M62,17h1v1h-1z M67,17h1v4h-1z M7,18h1v1h-1z M10,18h1v1h-1z M14,18h2v1h-2z M17,18h1v1h-1z M19,18h2v1h-2z M22,18h1v1h-1z M24,18h1v8h-1z M26,18h1v5h-1z M29,18h4v1h-4z M39,18h3v1h-3z M43,18h1v3h-1z M44,18h1v1h-1z M46,18h1v1h-1z M56,18h3v1h-3z M60,18h1v1h-1z M4,19h1v1h-1z M6,19h1v6h-1z M9,19h1v6h-1z M13,19h1v1h-1z M15,19h1v1h-1z M18,19h1v1h-1z M21,19h1v1h-1z M29,19h1v1h-1z M31,19h3v1h-3z M36,19h2v1h-2z M40,19h1v1h-1z M45,19h1v2h-1z M48,19h2v5h-2z M52,19h1v2h-1z M55,19h1v2h-1z M58,19h1v1h-1z M61,19h3v1h-3z M5,20h1v4h-1z M7,20h1v2h-1z M10,20h3v1h-3z M14,20h1v2h-1z M16,20h1v1h-1z M19,20h1v3h-1z M23,20h1v2h-1z M27,20h2v1h-2z M32,20h2v1h-2z M35,20h1v5h-1z M37,20h1v2h-1z M39,20h1v2h-1z M41,20h1v1h-1z M44,20h1v1h-1z M53,20h1v1h-1z M57,20h1v2h-1z M62,20h4v1h-4z M11,21h1v3h-1z M13,21h1v2h-1z M15,21h1v2h-1z M18,21h1v6h-1z M21,21h2v2h-2z M29,21h1v3h-1z M31,21h1v3h-1z M33,21h1v1h-1z M36,21h1v1h-1z M40,21h1v1h-1z M42,21h1v2h-1z M51,21h1v1h-1z M54,21h1v2h-1z M60,21h1v3h-1z M61,21h1v1h-1z M63,21h1v2h-1z M65,21h2v1h-2z M4,22h1v1h-1z M8,22h1v1h-1z M10,22h1v1h-1z M12,22h1v2h-1z M16,22h1v2h-1z M20,22h1v4h-1z M25,22h1v1h-1z M30,22h1v1h-1z M41,22h1v2h-1z M43,22h1v1h-1z M45,22h1v6h-1z M46,22h1v1h-1z M50,22h1v2h-1z M52,22h1v1h-1z M55,22h1v3h-1z M58,22h1v1h-1z M66,22h1v1h-1z M14,23h1v1h-1z M22,23h1v3h-1z M23,23h1v1h-1z M28,23h1v1h-1z M33,23h1v3h-1z M37,23h1v5h-1z M39,23h2v1h-2z M44,23h1v1h-1z M47,23h1v3h-1z M51,23h1v3h-1z M57,23h1v1h-1z M59,23h1v1h-1z M62,23h1v2h-1z M64,23h1v3h-1z M65,23h1v1h-1z M67,23h2v1h-2z M7,24h1v1h-1z M10,24h1v1h-1z M17,24h1v1h-1z M30,24h1v4h-1z M38,24h1v2h-1z M40,24h1v1h-1z M46,24h1v5h-1z M52,24h3v1h-3z M56,24h1v1h-1z M58,24h1v1h-1z M63,24h1v1h-1z M66,24h1v1h-1z M68,24h1v1h-1z M4,25h1v9h-1z M11,25h2v1h-2z M14,25h1v5h-1z M16,25h1v3h-1z M34,25h1v2h-1z M39,25h1v1h-1z M41,25h4v1h-4z M53,25h1v2h-1z M65,25h1v2h-1z M67,25h1v6h-1z M5,26h3v2h-3z M8,26h1v1h-1z M10,26h2v1h-2z M13,26h1v2h-1z M19,26h1v2h-1z M23,26h1v1h-1z M25,26h2v1h-2z M28,26h2v2h-2z M31,26h1v1h-1z M35,26h1v1h-1z M43,26h1v1h-1z M48,26h1v3h-1z M52,26h1v1h-1z M56,26h1v3h-1z M62,26h1v1h-1z M9,27h1v1h-1z M21,27h1v1h-1z M24,27h1v1h-1z M26,27h1v2h-1z M32,27h1v3h-1z M36,27h1v1h-1z M40,27h3v2h-3z M49,27h3v1h-3z M58,27h1v1h-1z M64,27h1v2h-1z M66,27h1v1h-1z M68,27h1v1h-1z M5,28h1v2h-1z M8,28h1v1h-1z M10,28h1v1h-1z M15,28h1v1h-1z M17,28h2v1h-2z M23,28h1v1h-1z M27,28h1v1h-1z M29,28h1v1h-1z M31,28h1v2h-1z M33,28h1v1h-1z M35,28h1v1h-1z M43,28h2v1h-2z M51,28h2v1h-2z M54,28h1v1h-1z M59,28h2v1h-2z M63,28h1v1h-1z M11,29h3v2h-3z M17,29h1v1h-1z M20,29h3v1h-3z M24,29h1v4h-1z M25,29h1v1h-1z M28,29h1v4h-1z M34,29h1v1h-1z M37,29h1v1h-1z M44,29h2v1h-2z M47,29h1v1h-1z M50,29h1v4h-1z M53,29h1v1h-1z M55,29h1v1h-1z M59,29h1v1h-1z M62,29h1v2h-1z M65,29h2v2h-2z M6,30h2v1h-2z M10,30h1v1h-1z M19,30h2v1h-2z M23,30h1v2h-1z M27,30h1v1h-1z M35,30h1v1h-1z M40,30h4v1h-4z M51,30h1v3h-1z M52,30h1v1h-1z M54,30h1v1h-1z M57,30h2v1h-2z M60,30h1v9h-1z M63,30h1v1h-1z M68,30h1v1h-1z M7,31h1v3h-1z M9,31h1v4h-1z M12,31h6v1h-6z M19,31h1v1h-1z M21,31h2v1h-2z M29,31h1v1h-1z M33,31h2v1h-2z M36,31h1v4h-1z M39,31h1v2h-1z M41,31h2v1h-2z M44,31h1v2h-1z M46,31h1v4h-1z M47,31h1v1h-1z M49,31h1v2h-1z M53,31h1v1h-1z M5,32h1v2h-1z M10,32h2v1h-2z M13,32h1v1h-1z M17,32h1v3h-1z M22,32h1v3h-1z M27,32h1v1h-1z M30,32h2v2h-2z M37,32h1v1h-1z M40,32h1v1h-1z M43,32h1v1h-1z M48,32h1v1h-1z M54,32h1v5h-1z M55,32h1v2h-1z M58,32h2v1h-2z M61,32h1v1h-1z M63,32h3v1h-3z M67,32h1v1h-1z M6,33h1v1h-1z M8,33h1v10h-1z M16,33h1v1h-1z M19,33h1v1h-1z M21,33h1v7h-1z M25,33h1v6h-1z M26,33h1v1h-1z M29,33h1v3h-1z M32,33h2v1h-2z M38,33h1v6h-1z M41,33h1v2h-1z M47,33h1v1h-1z M52,33h1v1h-1z M56,33h2v1h-2z M59,33h1v3h-1z M64,33h1v6h-1z M65,33h2v1h-2z M68,33h1v5h-1z M10,34h3v1h-3z M15,34h1v1h-1z M18,34h1v1h-1z M20,34h1v3h-1z M23,34h1v2h-1z M28,34h1v5h-1z M30,34h1v2h-1z M32,34h1v1h-1z M34,34h1v6h-1z M35,34h1v1h-1z M37,34h1v1h-1z M42,34h3v1h-3z M50,34h2v1h-2z M58,34h1v3h-1z M61,34h3v1h-3z M66,34h2v1h-2z M6,35h1v1h-1z M12,35h1v4h-1z M14,35h1v1h-1z M19,35h1v4h-1z M24,35h1v1h-1z M26,35h2v1h-2z M39,35h2v1h-2z M44,35h1v2h-1z M47,35h3v1h-3z M51,35h3v1h-3z M55,35h2v1h-2z M65,35h1v3h-1z M67,35h1v6h-1z M5,36h1v3h-1z M7,36h1v1h-1z M10,36h1v1h-1z M13,36h1v2h-1z M15,36h2v1h-2z M22,36h1v4h-1z M27,36h1v1h-1z M31,36h3v1h-3z M36,36h1v1h-1z M41,36h3v2h-3z M45,36h1v4h-1z M47,36h1v1h-1z M49,36h1v1h-1z M52,36h1v2h-1z M56,36h1v1h-1z M62,36h1v1h-1z M66,36h1v4h-1z M16,37h2v1h-2z M23,37h1v3h-1z M24,37h1v1h-1z M26,37h1v1h-1z M29,37h2v2h-2z M39,37h1v6h-1z M48,37h1v2h-1z M51,37h1v5h-1z M55,37h1v6h-1z M4,38h1v3h-1z M7,38h1v1h-1z M9,38h3v1h-3z M15,38h2v1h-2z M18,38h1v6h-1z M20,38h1v1h-1z M32,38h1v1h-1z M35,38h2v2h-2z M37,38h1v1h-1z M40,38h1v1h-1z M44,38h1v1h-1z M46,38h2v1h-2z M49,38h2v2h-2z M53,38h2v1h-2z M58,38h2v1h-2z M61,38h3v1h-3z M9,39h1v1h-1z M14,39h2v1h-2z M17,39h1v1h-1z M27,39h1v1h-1z M29,39h1v1h-1z M31,39h1v3h-1z M33,39h1v1h-1z M41,39h1v1h-1z M46,39h1v1h-1z M52,39h1v2h-1z M54,39h1v2h-1z M56,39h1v3h-1z M61,39h1v1h-1z M7,40h1v3h-1z M10,40h2v1h-2z M13,40h2v1h-2z M20,40h1v1h-1z M25,40h2v2h-2z M28,40h1v3h-1z M30,40h1v2h-1z M36,40h2v1h-2z M42,40h3v1h-3z M47,40h3v1h-3z M57,40h2v1h-2z M60,40h1v2h-1z M62,40h1v1h-1z M64,40h1v1h-1z M9,41h1v1h-1z M16,41h1v1h-1z M21,41h4v1h-4z M27,41h1v4h-1z M32,41h1v3h-1z M33,41h1v1h-1z M35,41h1v2h-1z M41,41h1v1h-1z M43,41h1v4h-1z M44,41h2v1h-2z M50,41h1v1h-1z M53,41h1v2h-1z M65,41h1v1h-1z M10,42h1v1h-1z M12,42h2v1h-2z M15,42h1v1h-1z M24,42h2v1h-2z M36,42h1v2h-1z M38,42h1v1h-1z M42,42h1v3h-1z M45,42h1v3h-1z M46,42h1v1h-1z M48,42h1v6h-1z M49,42h1v1h-1z M54,42h1v1h-1z M57,42h1v1h-1z M61,42h1v5h-1z M62,42h2v1h-2z M67,42h2v1h-2z M5,43h1v1h-1z M11,43h1v2h-1z M13,43h1v3h-1z M14,43h1v1h-1z M16,43h1v1h-1z M22,43h1v2h-1z M30,43h2v1h-2z M37,43h1v1h-1z M47,43h1v1h-1z M51,43h1v2h-1z M56,43h1v1h-1z M58,43h3v1h-3z M63,43h1v3h-1z M65,43h1v1h-1z M67,43h1v1h-1z M4,44h1v1h-1z M6,44h2v1h-2z M9,44h2v1h-2z M12,44h1v3h-1z M15,44h1v4h-1z M17,44h1v1h-1z M19,44h1v1h-1z M23,44h1v1h-1z M25,44h1v2h-1z M31,44h1v1h-1z M40,44h1v1h-1z M44,44h1v2h-1z M46,44h1v1h-1z M49,44h1v3h-1z M52,44h1v5h-1z M53,44h1v1h-1z M55,44h1v1h-1z M57,44h1v2h-1z M59,44h1v3h-1z M62,44h1v3h-1z M64,44h1v1h-1z M5,45h1v1h-1z M7,45h1v6h-1z M14,45h1v1h-1z M16,45h1v2h-1z M20,45h2v1h-2z M26,45h1v1h-1z M33,45h2v2h-2z M37,45h2v2h-2z M41,45h1v3h-1z M47,45h1v4h-1z M54,45h1v2h-1z M56,45h1v4h-1z M60,45h1v6h-1z M66,45h1v2h-1z M68,45h1v3h-1z M8,46h4v1h-4z M17,46h1v3h-1z M18,46h1v1h-1z M30,46h3v1h-3z M35,46h2v1h-2z M42,46h2v1h-2z M46,46h1v1h-1z M55,46h1v2h-1z M67,46h1v1h-1z M9,47h1v6h-1z M20,47h1v4h-1z M21,47h2v1h-2z M27,47h3v1h-3z M32,47h1v1h-1z M34,47h2v1h-2z M37,47h1v1h-1z M44,47h2v1h-2z M50,47h2v1h-2z M53,47h1v2h-1z M63,47h3v1h-3z M4,48h1v3h-1z M6,48h1v5h-1z M10,48h2v1h-2z M13,48h1v3h-1z M16,48h1v1h-1z M18,48h1v2h-1z M24,48h2v1h-2z M27,48h1v1h-1z M30,48h1v1h-1z M36,48h1v2h-1z M38,48h2v1h-2z M45,48h1v3h-1z M49,48h2v1h-2z M12,49h1v1h-1z M15,49h1v1h-1z M19,49h1v1h-1z M21,49h2v2h-2z M25,49h1v3h-1z M26,49h1v1h-1z M28,49h1v7h-1z M29,49h1v1h-1z M31,49h1v4h-1z M40,49h5v1h-5z M46,49h1v1h-1z M51,49h1v1h-1z M62,49h1v1h-1z M68,49h1v1h-1z M5,50h1v4h-1z M10,50h1v1h-1z M14,50h1v1h-1z M16,50h1v1h-1z M23,50h1v1h-1z M27,50h1v1h-1z M30,50h1v1h-1z M32,50h1v6h-1z M33,50h1v1h-1z M37,50h2v1h-2z M42,50h2v1h-2z M49,50h2v2h-2z M52,50h1v3h-1z M54,50h4v1h-4z M59,50h1v2h-1z M66,50h1v3h-1z M67,50h1v1h-1z M8,51h1v1h-1z M15,51h1v2h-1z M18,51h2v1h-2z M21,51h1v1h-1z M29,51h1v3h-1z M37,51h1v1h-1z M40,51h1v1h-1z M42,51h1v1h-1z M46,51h1v1h-1z M51,51h1v2h-1z M55,51h2v4h-2z M58,51h1v2h-1z M62,51h3v1h-3z M4,52h1v1h-1z M10,52h3v1h-3z M14,52h1v4h-1z M17,52h1v1h-1z M19,52h1v1h-1z M23,52h2v1h-2z M26,52h1v2h-1z M33,52h3v1h-3z M38,52h1v1h-1z M41,52h1v1h-1z M43,52h1v1h-1z M47,52h2v1h-2z M57,52h1v1h-1z M63,52h1v2h-1z M65,52h1v3h-1z M18,53h1v1h-1z M20,53h1v1h-1z M23,53h1v1h-1z M25,53h1v1h-1z M27,53h1v1h-1z M39,53h2v1h-2z M50,53h1v1h-1z M53,53h1v1h-1z M59,53h1v1h-1z M62,53h1v2h-1z M67,53h1v2h-1z M4,54h1v2h-1z M6,54h1v1h-1z M8,54h1v4h-1z M10,54h4v1h-4z M17,54h1v1h-1z M19,54h1v1h-1z M22,54h1v1h-1z M33,54h1v1h-1z M37,54h2v1h-2z M40,54h1v6h-1z M41,54h1v1h-1z M44,54h3v2h-3z M47,54h1v1h-1z M51,54h1v1h-1z M54,54h1v1h-1z M57,54h1v2h-1z M61,54h1v2h-1z M68,54h1v1h-1z M12,55h1v1h-1z M20,55h1v4h-1z M21,55h1v1h-1z M24,55h2v1h-2z M29,55h2v2h-2z M35,55h3v1h-3z M48,55h1v5h-1z M49,55h2v1h-2z M53,55h1v1h-1z M56,55h1v1h-1z M60,55h1v1h-1z M63,55h1v1h-1z M6,56h1v1h-1z M10,56h2v1h-2z M13,56h1v3h-1z M16,56h1v1h-1z M18,56h2v1h-2z M22,56h1v2h-1z M26,56h2v1h-2z M33,56h1v1h-1z M43,56h1v1h-1z M45,56h2v1h-2z M49,56h1v1h-1z M51,56h1v4h-1z M52,56h1v1h-1z M54,56h1v2h-1z M59,56h1v2h-1z M62,56h1v1h-1z M65,56h1v3h-1z M67,56h1v1h-1z M12,57h1v5h-1z M15,57h1v3h-1z M19,57h1v5h-1z M24,57h1v4h-1z M30,57h1v3h-1z M34,57h2v1h-2z M37,57h1v4h-1z M39,57h1v2h-1z M42,57h1v1h-1z M44,57h1v1h-1z M46,57h2v2h-2z M53,57h1v1h-1z M57,57h1v1h-1z M60,57h2v2h-2z M63,57h1v2h-1z M66,57h1v1h-1z M6,58h2v1h-2z M9,58h3v1h-3z M16,58h1v1h-1z M18,58h1v2h-1z M21,58h1v1h-1z M25,58h1v1h-1z M27,58h1v2h-1z M29,58h1v1h-1z M36,58h1v3h-1z M45,58h1v5h-1z M49,58h1v1h-1z M52,58h1v1h-1z M55,58h2v1h-2z M58,58h1v2h-1z M62,58h1v3h-1z M67,58h2v1h-2z M4,59h1v1h-1z M7,59h1v1h-1z M11,59h1v1h-1z M14,59h1v1h-1z M17,59h1v3h-1z M26,59h1v2h-1z M28,59h1v1h-1z M31,59h1v1h-1z M33,59h3v1h-3z M38,59h1v6h-1z M41,59h2v1h-2z M44,59h1v5h-1z M47,59h1v3h-1z M50,59h1v2h-1z M56,59h1v2h-1z M59,59h1v1h-1z M61,59h1v2h-1z M64,59h1v8h-1z M67,59h1v1h-1z M5,60h2v1h-2z M8,60h1v1h-1z M10,60h1v1h-1z M13,60h1v1h-1z M21,60h1v2h-1z M25,60h1v2h-1z M32,60h1v1h-1z M34,60h1v5h-1z M35,60h1v1h-1z M49,60h1v2h-1z M52,60h2v1h-2z M55,60h1v1h-1z M57,60h1v4h-1z M60,60h1v6h-1z M63,60h1v1h-1z M65,60h2v1h-2z M14,61h1v3h-1z M16,61h1v1h-1z M18,61h1v1h-1z M20,61h1v1h-1z M23,61h1v2h-1z M27,61h1v1h-1z M29,61h2v1h-2z M33,61h1v2h-1z M40,61h1v3h-1z M42,61h1v1h-1z M46,61h1v3h-1z M53,61h1v1h-1z M4,62h7v1h-7z M15,62h1v5h-1z M22,62h1v4h-1z M28,62h1v1h-1z M30,62h1v3h-1z M36,62h1v1h-1z M43,62h1v1h-1z M54,62h2v2h-2z M62,62h1v1h-1z M66,62h2v2h-2z M4,63h1v6h-1z M10,63h1v6h-1z M13,63h1v1h-1z M17,63h1v1h-1z M19,63h1v4h-1z M20,63h2v1h-2z M24,63h2v1h-2z M29,63h1v1h-1z M31,63h1v1h-1z M41,63h2v1h-2z M50,63h1v1h-1z M52,63h2v2h-2z M58,63h1v1h-1z M65,63h1v5h-1z M68,63h1v1h-1z M6,64h3v3h-3z M18,64h1v1h-1z M21,64h1v5h-1z M26,64h3v1h-3z M33,64h1v2h-1z M35,64h3v1h-3z M41,64h1v1h-1z M48,64h1v3h-1z M51,64h1v2h-1z M55,64h2v1h-2z M59,64h1v1h-1z M61,64h3v1h-3z M12,65h1v1h-1z M17,65h1v1h-1z M23,65h4v1h-4z M31,65h2v2h-2z M39,65h1v3h-1z M53,65h1v1h-1z M56,65h1v3h-1z M57,65h1v1h-1z M61,65h1v1h-1z M63,65h1v1h-1z M67,65h2v1h-2z M13,66h1v1h-1z M18,66h1v2h-1z M20,66h1v1h-1z M27,66h2v3h-2z M29,66h2v1h-2z M34,66h1v1h-1z M36,66h3v1h-3z M41,66h2v2h-2z M45,66h1v3h-1z M47,66h1v3h-1z M50,66h1v1h-1z M55,66h1v3h-1z M59,66h1v2h-1z M68,66h1v1h-1z M16,67h2v2h-2z M23,67h1v2h-1z M26,67h1v2h-1z M32,67h2v2h-2z M35,67h1v1h-1z M43,67h2v1h-2z M46,67h1v2h-1z M52,67h1v2h-1z M54,67h1v1h-1z M58,67h1v1h-1z M60,67h1v1h-1z M67,67h1v2h-1z M5,68h5v1h-5z M14,68h2v1h-2z M22,68h1v1h-1z M30,68h1v1h-1z M34,68h1v1h-1z M36,68h1v1h-1z M38,68h1v1h-1z M42,68h2v1h-2z M48,68h1v1h-1z M53,68h1v1h-1z M62,68h3v1h-3z" fill="#000000"/>
</svg>
